<?xml version="1.0" encoding="utf-8"?>
<!-- Generator: Adobe Illustrator 18.0.0, SVG Export Plug-In . SVG Version: 6.00 Build 0)  -->
<!DOCTYPE svg PUBLIC "-//W3C//DTD SVG 1.1//EN" "http://www.w3.org/Graphics/SVG/1.1/DTD/svg11.dtd">
<svg version="1.1" id="Layer_1" xmlns="http://www.w3.org/2000/svg" xmlns:xlink="http://www.w3.org/1999/xlink" x="0px" y="0px"
	 viewBox="0 0 250 250" enable-background="new 0 0 250 250" xml:space="preserve">
<g>
	<path fill="#FFFFFF" stroke="#FFFFFF" stroke-width="0.5" stroke-miterlimit="10" d="M213.8,65c0-0.3-0.3-0.7-0.7-1
		c-15.7-32.4-49.2-54.8-87.9-54.8C85.8,9.2,52,32.6,36.3,66c-0.3,0.3-0.3,0.7-0.3,1l0,0c-5.6,12.2-8.7,26.2-8.7,40.5
		c0,54.1,43.9,98.3,98.3,98.3c53.7-0.3,98-44.3,98-98.7C223.6,92.2,220.1,77.9,213.8,65z M181.4,144.5c-0.7,0-1,0-1.7,0
		c-25.5-0.7-31.7-11.9-35.2-24.4c-3.5-12.2,1-18.5,8.7-20.9c9.1-2.8,19.9-4.2,28.9-4.2c4.9,0,9.8,0.3,14.6,1.4
		c8.7,1.4,14.3,3.8,12.2,20.6C206.1,135.8,201.6,144.5,181.4,144.5z M173.7,84.5c-19.9,0.7-40.5,9.1-48.5,9.1s-28.6-8.7-48.5-9.1
		c-14.3-0.3-26.9,0.3-36.3,1.4c1-3.8,2.1-7.3,3.5-11.2c5.2,0.7,14.3,1,23.7-3.8c9.8-4.9,17.4-13.6,23.4-26.2
		c8.7,11.5,27.9,29.6,63.1,31.4l11.2,0.7l-6.3-9.1c-0.3-0.7-9.4-13.9-4.9-28.9c1.7,3.8,3.8,8,6.6,12.2c7.7,10.8,21.3,23,44.6,21.3
		c1.7,4.2,3.5,8.7,4.5,13.3C200.6,84.9,188,84.2,173.7,84.5z M41.2,116.6C39.1,99.5,45,97.1,53.7,95.7c4.9-1,10.1-1.4,15-1.4
		c9.1,0,19.9,1.4,29.3,4.5c7.7,2.4,12.2,8.7,8.7,21.3s-13.9,24.4-35.9,24.8c-0.7,0-1,0-1.7,0C46.4,144.8,43.3,133.7,41.2,116.6z
		 M199.9,61.8c-26.2-1-35.6-24.4-38.4-34.2C177.5,35.3,190.8,47.2,199.9,61.8z M149.6,23.5c-10.1,14.6-8.7,30-4.5,40.8
		c-37-5.9-49.9-32.8-50.2-33.8l-2.1-4.2c10.1-3.8,20.9-6.3,32.4-6.3C133.6,20,142,21,149.6,23.5z M85.1,29.8l-0.3,1.4
		c-4.9,15.3-12.2,25.5-21.6,30.3c-5.2,2.8-10.1,3.1-13.9,3.1C57.6,49.6,70.1,37.4,85.1,29.8z M125.2,194.7c-32.8,0-61-18.1-76-44.6
		c4.5,2.1,10.8,3.5,19.2,3.8c25.1,0.7,39.1-12.2,43.2-19.2c4.2-7,5.9-15.3,8-21.3c2.1-5.9,5.6-4.9,5.6-4.9s3.1-1,5.6,4.9
		c2.1,5.9,3.8,14.3,8,21.3c4.2,7,18.1,19.9,43.2,19.2c8.4-0.3,14.6-1.7,19.2-3.8C186.3,176.6,157.7,194.7,125.2,194.7z"/>
	<g>
		<path fill="#05B9DE" d="M77.5,213.5c0-4.5,4.2-6.3,9.8-4.2l28.6,12.2c5.2,2.1,5.2,5.9,0,8.4l-28.6,12.2c-5.2,2.1-9.8,0.3-9.8-4.2
			C77.5,238,77.5,213.5,77.5,213.5z"/>
		<path fill="#05B9DE" d="M169.9,213.5c0-4.5-4.2-6.3-9.8-4.2l-28.6,12.2c-5.2,2.1-5.2,5.9,0,8.4l28.6,12.2c5.2,2.1,9.8,0.3,9.8-4.2
			V213.5z"/>
	</g>
</g>
</svg>
