<svg id="svg" version="1.1" width="400" height="448.8135593220339" viewBox="0 0 400 448.8135593220339" xmlns="http://www.w3.org/2000/svg" xmlns:xlink="http://www.w3.org/1999/xlink" ><g id="svgg"><path id="path0" d="M0.000 224.400 L 0.000 448.800 200.000 448.800 L 400.000 448.800 400.000 224.400 L 400.000 0.000 200.000 0.000 L 0.000 0.000 0.000 224.400 M205.800 15.200 C 219.198 16.115,222.360 16.409,225.000 16.980 C 226.540 17.313,228.594 17.589,229.565 17.593 C 230.536 17.597,232.246 17.856,233.365 18.169 C 234.484 18.482,236.300 18.919,237.400 19.140 C 244.832 20.634,260.697 25.378,261.780 26.431 C 261.989 26.634,262.501 26.800,262.918 26.800 C 263.335 26.800,264.154 27.056,264.738 27.369 C 265.322 27.682,266.610 28.283,267.600 28.705 C 270.071 29.757,273.276 31.090,274.000 31.366 C 274.330 31.492,274.870 31.755,275.200 31.951 C 275.530 32.147,277.420 33.111,279.400 34.094 C 281.380 35.077,283.630 36.238,284.400 36.675 C 285.170 37.111,286.624 37.927,287.632 38.488 C 290.744 40.221,291.303 40.559,293.278 41.900 C 294.331 42.615,295.291 43.200,295.412 43.200 C 295.788 43.200,298.182 44.972,298.520 45.500 C 298.696 45.775,299.018 46.000,299.236 46.000 C 299.585 46.000,301.861 47.446,302.400 48.009 C 302.510 48.124,303.127 48.555,303.771 48.965 C 311.330 53.784,327.246 68.802,336.662 80.000 C 338.769 82.505,343.200 88.338,343.200 88.605 C 343.200 88.748,343.830 89.634,344.600 90.574 C 345.370 91.514,346.000 92.406,346.000 92.557 C 346.000 92.808,347.524 95.126,348.001 95.600 C 348.607 96.203,350.400 99.108,350.400 99.488 C 350.400 99.733,350.538 99.993,350.708 100.067 C 351.112 100.242,354.400 105.825,354.400 106.337 C 354.400 106.555,354.551 106.793,354.736 106.867 C 355.044 106.989,358.985 114.572,360.210 117.400 C 360.496 118.060,361.131 119.500,361.622 120.600 C 363.532 124.882,364.891 128.130,365.555 130.000 C 367.293 134.894,370.029 143.514,370.761 146.400 C 371.235 148.270,371.875 150.610,372.182 151.600 C 372.489 152.590,372.861 154.300,373.008 155.400 C 373.156 156.500,373.529 158.288,373.838 159.373 C 374.147 160.458,374.400 162.131,374.400 163.090 C 374.400 164.050,374.668 165.953,374.996 167.318 C 376.324 172.845,377.260 195.601,376.456 202.800 C 376.222 204.890,375.852 208.670,375.634 211.200 C 375.239 215.765,374.748 219.373,373.944 223.600 C 373.713 224.810,373.299 227.060,373.021 228.600 C 372.744 230.140,372.311 231.907,372.059 232.526 C 371.807 233.145,371.600 234.123,371.600 234.698 C 371.600 235.273,371.252 236.836,370.827 238.172 C 367.296 249.270,365.886 253.454,365.569 253.780 C 365.366 253.989,365.200 254.534,365.200 254.991 C 365.200 255.448,364.968 256.177,364.685 256.611 C 364.402 257.045,363.748 258.480,363.231 259.800 C 361.299 264.736,355.393 277.013,354.510 277.929 C 354.229 278.219,354.000 278.643,354.000 278.871 C 354.000 279.098,353.460 280.084,352.800 281.062 C 352.140 282.040,351.600 282.923,351.600 283.024 C 351.600 283.125,350.970 284.105,350.200 285.200 C 349.430 286.295,348.800 287.265,348.800 287.354 C 348.800 287.719,341.813 297.865,340.594 299.271 C 340.150 299.782,338.420 301.920,336.748 304.022 C 330.167 312.299,319.086 323.226,309.493 330.898 C 306.056 333.647,294.296 342.000,293.863 342.000 C 293.757 342.000,292.713 342.630,291.544 343.400 C 290.375 344.170,289.189 344.800,288.909 344.800 C 288.629 344.800,288.400 344.962,288.400 345.161 C 288.400 345.359,287.905 345.722,287.300 345.967 C 286.695 346.212,284.940 347.124,283.400 347.993 C 278.573 350.718,269.783 354.872,265.000 356.689 C 260.509 358.395,254.418 360.500,253.000 360.836 C 252.120 361.044,251.040 361.382,250.600 361.588 C 249.707 362.004,246.234 362.964,242.600 363.798 C 241.280 364.101,239.480 364.523,238.600 364.737 C 220.000 369.257,194.958 370.223,175.000 367.191 C 165.762 365.788,157.911 364.142,152.200 362.410 C 150.660 361.943,148.590 361.315,147.600 361.014 C 146.610 360.714,145.260 360.281,144.600 360.052 C 143.940 359.823,142.230 359.246,140.800 358.769 C 135.065 356.854,123.660 351.971,120.800 350.206 C 120.030 349.731,118.230 348.759,116.800 348.046 C 115.370 347.333,113.660 346.407,113.000 345.988 C 112.340 345.569,111.260 344.967,110.600 344.650 C 107.424 343.128,95.175 334.697,90.600 330.884 C 90.160 330.517,88.540 329.196,87.000 327.947 C 79.098 321.541,67.932 310.065,61.364 301.600 C 60.084 299.950,58.929 298.510,58.797 298.400 C 58.666 298.290,57.757 297.030,56.779 295.600 C 55.801 294.170,54.910 292.910,54.800 292.800 C 54.376 292.376,52.800 290.021,52.800 289.812 C 52.800 289.691,52.215 288.730,51.500 287.676 C 47.677 282.043,42.466 272.629,39.611 266.200 C 39.123 265.100,38.440 263.570,38.094 262.800 C 33.433 252.433,28.617 237.356,26.976 228.000 C 26.687 226.350,26.259 224.371,26.025 223.603 C 25.791 222.834,25.596 221.394,25.590 220.403 C 25.585 219.411,25.396 217.880,25.171 217.000 C 23.832 211.777,22.783 188.915,23.584 182.400 C 23.841 180.310,24.216 176.440,24.418 173.800 C 24.620 171.160,24.968 167.875,25.192 166.500 C 26.613 157.790,27.380 153.655,28.031 151.200 C 29.582 145.350,30.226 143.180,32.111 137.435 C 34.469 130.249,35.057 128.544,35.570 127.400 C 36.203 125.986,37.457 123.098,39.144 119.164 C 40.855 115.176,43.839 109.247,45.870 105.800 C 46.518 104.700,47.175 103.530,47.329 103.200 C 47.483 102.870,47.961 102.060,48.392 101.400 C 48.823 100.740,49.473 99.671,49.837 99.024 C 50.453 97.930,53.370 93.592,56.981 88.400 C 58.894 85.649,62.225 81.447,65.384 77.800 C 66.718 76.260,68.347 74.377,69.005 73.615 C 70.587 71.781,79.825 62.526,81.602 60.994 C 82.371 60.331,84.350 58.606,86.000 57.160 C 90.076 53.588,96.228 48.800,96.741 48.800 C 96.972 48.800,97.304 48.575,97.480 48.300 C 97.812 47.781,100.210 46.000,100.576 46.000 C 100.690 46.000,102.181 45.010,103.889 43.800 C 105.597 42.590,107.221 41.600,107.497 41.600 C 107.774 41.600,108.000 41.416,108.000 41.190 C 108.000 40.965,108.441 40.612,108.981 40.407 C 109.520 40.202,110.645 39.605,111.481 39.080 C 114.632 37.101,122.123 33.183,125.800 31.589 C 127.907 30.677,129.042 30.172,132.026 28.825 C 133.031 28.371,134.156 28.000,134.526 28.000 C 134.897 28.000,135.200 27.823,135.200 27.608 C 135.200 27.392,135.695 27.103,136.300 26.966 C 136.905 26.829,138.570 26.260,140.000 25.702 C 142.414 24.760,149.949 22.349,154.600 21.030 C 156.824 20.399,159.583 19.747,162.600 19.139 C 163.700 18.917,165.632 18.480,166.894 18.168 C 168.156 17.856,169.866 17.597,170.694 17.593 C 171.522 17.589,173.460 17.313,175.000 16.980 C 177.570 16.424,181.405 16.059,193.400 15.228 C 199.815 14.783,199.708 14.784,205.800 15.200 M187.200 39.400 C 183.570 39.666,179.610 40.077,178.400 40.315 C 177.190 40.553,175.132 40.867,173.826 41.012 C 172.520 41.157,171.014 41.443,170.478 41.646 C 169.942 41.850,168.400 42.192,167.052 42.406 C 165.703 42.619,163.250 43.170,161.600 43.628 C 159.950 44.087,157.700 44.709,156.600 45.011 C 153.893 45.755,150.866 46.769,149.340 47.443 C 148.646 47.749,147.819 48.000,147.502 48.000 C 144.925 48.000,145.951 51.250,151.545 60.800 C 156.024 68.446,164.781 78.516,172.597 85.009 C 173.916 86.104,175.231 87.222,175.520 87.494 C 177.725 89.568,184.753 94.318,191.000 97.957 C 192.980 99.110,194.870 100.223,195.200 100.430 C 195.530 100.637,196.250 101.004,196.800 101.246 C 197.350 101.488,198.070 101.847,198.400 102.045 C 198.730 102.243,199.270 102.508,199.600 102.635 C 199.930 102.761,200.940 103.210,201.844 103.632 C 202.748 104.055,203.678 104.400,203.911 104.400 C 204.144 104.400,204.845 104.653,205.468 104.962 C 208.318 106.376,210.343 107.200,210.970 107.200 C 211.345 107.200,212.037 107.406,212.508 107.658 C 212.978 107.909,214.181 108.352,215.182 108.641 C 216.182 108.930,218.890 109.716,221.200 110.388 C 223.510 111.060,226.300 111.771,227.400 111.970 C 228.500 112.168,229.895 112.455,230.500 112.608 C 231.795 112.936,232.088 110.704,231.000 108.800 C 230.686 108.250,230.422 107.221,230.414 106.514 C 230.406 105.807,230.112 104.379,229.759 103.340 C 229.407 102.302,228.969 100.001,228.787 98.226 C 228.604 96.452,228.245 93.763,227.988 92.251 C 227.469 89.189,227.657 80.911,228.340 76.800 C 228.577 75.370,228.947 73.120,229.162 71.800 C 229.760 68.119,230.450 65.124,231.004 63.800 C 231.280 63.140,231.925 61.250,232.438 59.600 C 232.951 57.950,233.602 56.316,233.885 55.969 C 234.168 55.621,234.400 55.123,234.400 54.861 C 234.400 54.253,238.279 46.808,239.033 45.969 C 240.743 44.064,238.839 43.294,227.400 41.260 C 214.095 38.894,201.870 38.329,187.200 39.400 M268.921 56.500 C 269.380 58.434,271.117 62.832,272.222 64.862 C 272.540 65.446,272.800 66.189,272.800 66.513 C 272.800 66.837,273.058 67.317,273.374 67.579 C 273.690 67.841,274.064 68.583,274.206 69.228 C 274.348 69.872,274.612 70.400,274.793 70.400 C 274.974 70.400,275.321 70.895,275.566 71.500 C 275.810 72.105,276.449 73.320,276.986 74.200 C 277.523 75.080,278.094 76.070,278.256 76.400 C 280.613 81.205,289.923 91.766,295.535 96.000 C 296.264 96.550,297.702 97.638,298.730 98.418 C 299.759 99.197,301.050 100.059,301.600 100.332 C 302.150 100.605,304.130 101.629,306.000 102.607 C 307.870 103.586,309.670 104.395,310.000 104.406 C 310.330 104.417,310.949 104.690,311.376 105.013 C 311.804 105.336,312.524 105.601,312.976 105.602 C 313.429 105.604,314.319 105.876,314.953 106.206 C 315.587 106.537,316.847 106.915,317.753 107.047 C 318.659 107.179,320.300 107.525,321.400 107.816 C 326.352 109.129,329.713 108.777,327.737 107.153 C 327.366 106.849,326.599 105.880,326.032 105.000 C 316.349 89.984,297.467 72.019,280.495 61.676 C 279.524 61.084,278.250 60.285,277.665 59.899 C 277.079 59.514,276.060 58.924,275.400 58.589 C 274.740 58.254,273.300 57.457,272.200 56.817 C 269.681 55.351,268.623 55.249,268.921 56.500 M123.600 59.173 C 123.600 59.378,123.205 59.671,122.723 59.825 C 122.240 59.978,120.982 60.710,119.927 61.452 C 118.872 62.193,117.920 62.800,117.812 62.800 C 117.049 62.800,105.415 71.570,100.000 76.228 C 93.464 81.850,90.627 84.633,85.597 90.353 C 84.169 91.977,82.810 93.507,82.579 93.753 C 79.548 96.966,69.634 111.174,69.494 112.507 C 69.195 115.349,87.787 110.197,92.431 106.150 C 92.779 105.848,93.191 105.600,93.348 105.600 C 93.632 105.600,95.784 104.155,96.623 103.400 C 96.868 103.180,97.572 102.640,98.187 102.200 C 101.611 99.752,108.432 92.000,111.867 86.651 C 112.875 85.083,113.987 83.350,114.340 82.800 C 115.239 81.397,119.612 72.633,120.729 69.994 C 121.241 68.787,121.916 67.290,122.229 66.668 C 122.543 66.045,122.800 65.337,122.800 65.094 C 122.800 64.851,123.143 63.921,123.561 63.026 C 124.558 60.897,124.841 58.800,124.131 58.800 C 123.839 58.800,123.600 58.968,123.600 59.173 M251.687 79.100 C 250.309 82.457,252.283 99.882,254.629 105.060 C 254.943 105.754,255.200 106.594,255.200 106.928 C 255.200 107.262,255.468 108.045,255.795 108.668 C 256.513 110.035,258.000 113.473,258.000 113.766 C 258.000 114.268,262.266 121.132,264.556 124.316 C 268.913 130.371,270.000 131.981,270.000 132.376 C 270.000 132.587,270.225 132.904,270.500 133.080 C 271.150 133.496,272.800 135.852,272.800 136.364 C 272.800 136.582,273.056 136.904,273.368 137.080 C 274.262 137.583,274.613 139.543,273.862 139.832 C 273.026 140.152,254.289 139.354,245.800 138.635 C 239.009 138.061,225.476 135.989,223.430 135.211 C 222.835 134.985,221.905 134.800,221.364 134.800 C 220.823 134.800,219.356 134.440,218.104 134.000 C 216.852 133.560,215.367 133.200,214.803 133.200 C 214.239 133.200,213.423 132.957,212.989 132.659 C 212.555 132.362,211.412 131.996,210.449 131.846 C 209.486 131.697,208.321 131.310,207.860 130.987 C 207.399 130.664,206.661 130.400,206.219 130.400 C 205.502 130.400,203.389 129.673,199.800 128.193 C 199.140 127.921,197.970 127.477,197.200 127.206 C 194.053 126.101,193.152 125.712,192.707 125.267 C 192.450 125.010,192.017 124.800,191.745 124.800 C 191.068 124.800,183.399 120.946,181.280 119.541 C 180.334 118.913,179.430 118.400,179.271 118.400 C 179.112 118.400,178.025 117.770,176.856 117.000 C 175.687 116.230,174.665 115.600,174.586 115.600 C 174.329 115.600,164.972 109.219,164.175 108.500 C 163.748 108.115,162.679 107.267,161.800 106.614 C 160.920 105.962,159.999 105.242,159.754 105.014 C 159.508 104.787,158.077 103.520,156.574 102.200 C 151.341 97.605,143.381 89.407,141.072 86.235 C 140.200 85.036,139.335 85.712,137.934 88.685 C 130.792 103.838,116.681 119.324,102.216 127.883 C 101.767 128.148,101.040 128.533,100.600 128.737 C 100.160 128.942,98.413 129.760,96.718 130.555 C 95.024 131.350,93.463 132.000,93.251 132.000 C 93.039 132.000,92.355 132.257,91.732 132.570 C 91.110 132.884,89.250 133.532,87.600 134.011 C 85.950 134.490,84.030 135.050,83.333 135.255 C 79.353 136.427,74.555 136.912,66.247 136.983 L 57.493 137.059 56.802 138.029 C 56.421 138.563,56.008 139.450,55.883 140.000 C 55.535 141.532,54.412 144.861,53.792 146.200 C 53.050 147.802,52.621 151.042,53.111 151.345 C 53.324 151.477,56.086 151.325,59.249 151.008 C 74.943 149.434,108.035 148.647,118.200 149.606 C 120.400 149.814,124.343 150.168,126.961 150.393 C 129.580 150.618,132.370 150.974,133.161 151.183 C 133.953 151.393,135.950 151.743,137.600 151.960 C 139.250 152.178,143.030 152.888,146.000 153.539 C 148.970 154.191,152.750 155.016,154.400 155.373 C 156.050 155.731,157.670 156.140,158.000 156.282 C 158.330 156.424,159.680 156.756,161.000 157.018 C 162.320 157.281,163.940 157.684,164.600 157.915 C 165.998 158.405,168.424 159.036,171.800 159.790 C 173.120 160.085,174.740 160.508,175.400 160.731 C 176.771 161.193,179.137 161.810,182.600 162.607 C 183.920 162.911,185.720 163.338,186.600 163.556 C 197.888 166.351,202.091 166.351,213.400 163.555 C 214.280 163.338,216.080 162.911,217.400 162.607 C 220.905 161.800,223.240 161.190,224.600 160.726 C 225.260 160.501,226.768 160.149,227.952 159.945 C 229.135 159.740,230.452 159.386,230.878 159.158 C 231.305 158.930,232.496 158.585,233.527 158.391 C 235.263 158.064,237.556 157.507,242.600 156.187 C 248.241 154.711,258.633 152.459,261.800 152.027 C 263.120 151.847,266.000 151.414,268.200 151.067 C 283.157 148.701,314.627 148.618,339.600 150.879 C 342.350 151.127,345.140 151.347,345.800 151.366 L 347.000 151.400 346.908 149.241 C 346.857 148.054,346.542 146.666,346.208 146.155 C 345.873 145.645,345.594 144.817,345.586 144.314 C 345.579 143.811,345.225 142.680,344.800 141.800 C 344.375 140.920,344.021 139.923,344.014 139.585 C 344.006 139.246,343.640 138.263,343.200 137.400 C 342.760 136.537,342.400 135.625,342.400 135.374 C 342.400 133.789,340.387 132.709,337.878 132.948 C 334.180 133.300,319.019 131.924,316.394 130.998 C 315.462 130.669,314.240 130.400,313.678 130.400 C 312.616 130.400,308.366 129.150,306.086 128.167 C 305.364 127.855,304.568 127.600,304.318 127.600 C 302.560 127.600,291.125 121.920,287.727 119.360 C 287.026 118.832,286.344 118.400,286.210 118.400 C 285.920 118.400,283.578 116.777,283.005 116.178 C 282.782 115.945,281.264 114.685,279.632 113.378 C 273.839 108.738,267.148 101.633,263.266 96.000 C 258.858 89.602,258.162 88.541,257.501 87.200 C 257.229 86.650,256.632 85.636,256.174 84.947 C 255.715 84.258,254.748 82.503,254.024 81.047 C 252.661 78.307,252.178 77.905,251.687 79.100 M84.200 171.860 C 81.560 172.165,77.510 172.772,75.200 173.208 C 72.890 173.644,70.616 174.001,70.146 174.000 C 69.676 174.000,68.776 174.269,68.146 174.598 C 67.516 174.926,66.552 175.196,66.004 175.198 C 62.861 175.205,56.190 180.059,54.392 183.645 C 51.688 189.041,50.898 199.929,52.585 208.535 C 52.923 210.260,53.200 212.453,53.200 213.409 C 53.200 214.365,53.384 215.633,53.610 216.226 C 53.835 216.819,54.278 218.856,54.593 220.752 C 56.027 229.380,57.494 233.849,60.971 240.182 C 69.693 256.071,97.787 261.620,126.600 253.144 C 131.289 251.764,130.912 251.914,136.800 249.080 C 142.507 246.332,147.074 242.908,152.000 237.684 C 156.386 233.033,156.520 232.876,157.206 231.575 C 157.488 231.039,157.838 230.510,157.982 230.400 C 158.745 229.819,163.721 218.847,164.785 215.400 C 170.489 196.921,166.268 184.677,152.400 179.478 C 148.809 178.132,144.509 176.800,143.754 176.800 C 143.407 176.800,141.926 176.461,140.462 176.047 C 134.682 174.411,127.705 173.257,114.800 171.802 C 108.032 171.039,91.016 171.071,84.200 171.860 M288.800 172.389 C 285.390 172.567,281.880 172.903,281.000 173.137 C 280.120 173.371,277.960 173.676,276.200 173.816 C 274.440 173.955,272.460 174.231,271.800 174.428 C 271.140 174.626,269.165 174.986,267.411 175.228 C 265.657 175.469,263.911 175.833,263.532 176.036 C 263.153 176.239,261.798 176.568,260.521 176.767 C 254.486 177.706,245.384 181.055,241.886 183.624 C 232.442 190.559,231.588 206.350,239.661 224.800 C 240.955 227.758,241.697 229.365,242.061 230.000 C 242.251 230.330,242.626 231.050,242.895 231.600 C 243.164 232.150,243.478 232.690,243.593 232.800 C 243.708 232.910,244.342 233.804,245.001 234.787 C 246.298 236.719,246.335 236.763,249.600 240.205 C 255.805 246.747,266.841 252.060,278.200 253.973 C 301.687 257.929,321.511 255.648,331.388 247.853 C 338.183 242.492,342.957 231.561,345.215 216.200 C 345.442 214.660,345.915 212.149,346.267 210.619 C 348.820 199.529,346.501 184.590,341.557 180.281 C 338.120 177.284,331.633 174.928,324.231 173.986 C 322.708 173.792,319.828 173.363,317.831 173.031 C 313.376 172.292,297.452 171.940,288.800 172.389 M197.857 196.411 C 194.891 197.300,192.963 200.797,189.593 211.400 C 189.103 212.940,188.455 214.710,188.151 215.332 C 187.848 215.955,187.600 216.765,187.600 217.132 C 187.600 217.942,186.116 222.562,185.351 224.132 C 185.048 224.755,184.800 225.568,184.800 225.938 C 184.800 226.309,184.440 227.284,184.000 228.104 C 183.560 228.925,183.200 229.811,183.200 230.072 C 183.200 231.704,177.895 241.522,174.720 245.767 C 166.878 256.253,150.355 267.595,137.600 271.250 C 136.830 271.471,135.633 271.910,134.940 272.226 C 134.246 272.542,133.284 272.800,132.800 272.800 C 132.316 272.800,131.354 273.047,130.660 273.349 C 129.462 273.870,127.544 274.279,121.900 275.214 C 120.525 275.442,118.230 275.833,116.800 276.082 C 112.344 276.858,92.486 276.959,88.929 276.223 C 87.271 275.881,85.079 275.596,84.057 275.591 C 83.036 275.585,80.862 275.225,79.227 274.791 C 77.592 274.356,75.792 273.994,75.227 273.986 C 74.662 273.978,73.750 273.714,73.200 273.400 C 72.205 272.831,70.000 272.583,70.000 273.039 C 70.000 273.250,74.549 279.854,78.334 285.137 C 81.033 288.904,87.095 295.818,92.223 300.978 C 95.485 304.259,101.111 309.195,106.200 313.238 C 110.435 316.604,121.203 324.000,121.868 324.000 C 121.993 324.000,123.109 324.605,124.348 325.345 C 127.675 327.332,136.837 332.000,137.408 332.000 C 137.680 332.000,138.126 332.270,138.400 332.600 C 138.674 332.930,139.198 333.200,139.564 333.200 C 139.931 333.200,140.937 333.560,141.800 334.000 C 142.663 334.440,143.651 334.800,143.996 334.800 C 144.340 334.800,144.977 335.047,145.411 335.349 C 145.845 335.651,146.797 336.028,147.527 336.187 C 148.257 336.345,149.337 336.727,149.927 337.035 C 150.517 337.343,151.327 337.596,151.726 337.598 C 152.126 337.599,152.833 337.804,153.299 338.053 C 153.765 338.302,155.058 338.740,156.173 339.027 C 157.288 339.313,160.270 340.101,162.800 340.778 C 165.330 341.456,168.925 342.280,170.789 342.611 C 172.654 342.942,174.724 343.378,175.389 343.580 C 176.055 343.783,178.580 344.135,181.000 344.365 C 183.420 344.594,187.020 344.983,189.000 345.229 C 193.911 345.841,211.400 345.461,216.400 344.634 C 218.490 344.288,221.067 344.004,222.126 344.003 C 223.186 344.001,224.357 343.837,224.729 343.638 C 225.101 343.439,227.024 342.995,229.002 342.651 C 230.981 342.308,234.670 341.477,237.200 340.805 C 239.730 340.133,242.700 339.349,243.800 339.064 C 244.900 338.778,246.193 338.332,246.674 338.072 C 247.154 337.812,247.969 337.600,248.485 337.600 C 249.000 337.600,249.777 337.353,250.211 337.051 C 250.645 336.749,251.630 336.366,252.400 336.200 C 253.170 336.034,254.155 335.651,254.589 335.349 C 255.023 335.047,255.699 334.800,256.090 334.800 C 256.482 334.800,257.475 334.440,258.296 334.000 C 259.116 333.560,260.084 333.200,260.445 333.200 C 260.806 333.200,261.326 332.930,261.600 332.600 C 261.874 332.270,262.355 332.000,262.670 332.000 C 263.159 332.000,264.915 331.198,267.200 329.931 C 267.530 329.748,268.160 329.437,268.600 329.241 C 269.040 329.045,271.367 327.785,273.770 326.442 C 276.174 325.099,278.206 324.000,278.286 324.000 C 278.367 324.000,278.920 323.664,279.516 323.254 C 280.112 322.843,282.580 321.198,285.000 319.597 C 295.477 312.665,305.584 303.844,314.483 293.863 C 316.279 291.848,317.864 290.110,318.005 290.000 C 318.926 289.278,330.000 273.620,330.000 273.038 C 330.000 272.624,327.983 272.781,327.078 273.266 C 326.599 273.522,325.036 273.955,323.604 274.229 C 322.172 274.502,320.280 274.919,319.400 275.154 C 318.520 275.389,316.900 275.592,315.800 275.605 C 314.700 275.618,312.720 275.889,311.400 276.208 C 308.027 277.022,288.512 277.016,284.800 276.200 C 283.370 275.885,281.390 275.618,280.400 275.605 C 279.410 275.592,277.262 275.225,275.627 274.791 C 273.992 274.356,272.225 274.000,271.701 274.000 C 271.176 274.000,270.402 273.815,269.979 273.589 C 269.557 273.363,268.444 273.015,267.506 272.815 C 265.252 272.335,262.059 271.275,260.738 270.568 C 260.154 270.256,259.404 270.000,259.070 270.000 C 257.935 270.000,245.880 263.900,244.369 262.560 C 244.021 262.252,243.614 262.000,243.464 262.000 C 243.050 262.000,239.319 259.347,236.365 256.952 C 228.260 250.380,221.821 242.193,218.788 234.600 C 218.261 233.280,217.598 231.845,217.315 231.411 C 217.032 230.977,216.800 230.223,216.800 229.735 C 216.800 229.247,216.625 228.739,216.411 228.607 C 216.197 228.474,215.828 227.609,215.592 226.683 C 215.355 225.757,214.923 224.460,214.630 223.800 C 213.903 222.160,213.205 220.111,212.723 218.200 C 212.501 217.320,212.067 216.033,211.760 215.340 C 211.452 214.646,211.200 213.647,211.200 213.120 C 211.200 212.592,211.045 211.989,210.856 211.780 C 210.667 211.571,210.016 209.870,209.409 208.000 C 206.138 197.914,203.080 194.846,197.857 196.411 M128.080 372.435 C 129.942 372.816,134.154 374.290,135.972 375.196 C 136.317 375.368,137.590 375.914,138.800 376.409 C 140.010 376.904,141.540 377.544,142.200 377.831 C 142.860 378.118,146.640 379.733,150.600 381.420 C 154.560 383.107,158.520 384.813,159.400 385.211 C 160.280 385.609,162.800 386.680,165.000 387.590 C 167.200 388.500,169.540 389.486,170.200 389.781 C 170.860 390.076,172.390 390.725,173.600 391.223 C 188.044 397.168,190.200 398.672,190.200 402.800 C 190.200 406.855,188.498 408.102,175.200 413.793 C 171.790 415.252,168.640 416.608,168.200 416.805 C 167.760 417.003,166.230 417.631,164.800 418.202 C 163.370 418.773,161.660 419.484,161.000 419.780 C 160.340 420.077,159.170 420.603,158.400 420.948 C 157.630 421.294,151.870 423.752,145.600 426.411 C 139.330 429.070,133.660 431.505,133.000 431.823 C 126.070 435.154,119.784 434.163,116.364 429.200 L 115.400 427.800 115.400 403.000 L 115.400 378.200 116.354 376.536 C 118.460 372.859,122.781 371.348,128.080 372.435 M272.723 372.462 C 275.213 373.075,277.490 374.916,278.543 377.168 C 279.627 379.485,279.908 424.762,278.858 427.734 C 277.544 431.451,274.045 433.713,269.600 433.719 C 266.176 433.724,263.365 432.716,248.573 426.179 C 246.358 425.201,244.424 424.400,244.274 424.400 C 244.125 424.400,242.877 423.890,241.501 423.267 C 240.125 422.644,238.010 421.725,236.800 421.226 C 235.590 420.726,234.060 420.082,233.400 419.794 C 231.139 418.807,228.200 417.514,227.000 416.977 C 226.340 416.682,224.630 415.968,223.200 415.390 C 221.770 414.812,219.880 414.008,219.000 413.602 C 218.120 413.197,215.615 412.114,213.433 411.195 C 200.847 405.898,200.762 399.832,213.200 394.581 C 215.070 393.792,217.185 392.888,217.900 392.573 C 221.049 391.185,225.110 389.448,227.600 388.423 C 228.810 387.925,230.340 387.280,231.000 386.991 C 232.706 386.241,243.963 381.431,248.000 379.726 C 249.870 378.936,252.210 377.937,253.200 377.506 C 256.934 375.881,257.455 375.660,259.600 374.789 C 260.810 374.297,262.170 373.727,262.622 373.522 C 265.518 372.206,269.840 371.753,272.723 372.462 " stroke="none" fill="#ffffff" fill-rule="evenodd"></path><path id="path1" d="M192.800 16.094 C 173.699 16.896,158.510 19.938,138.400 26.990 C 137.410 27.338,136.240 27.784,135.800 27.983 C 135.360 28.182,133.200 29.091,131.000 30.003 C 128.800 30.916,126.730 31.829,126.400 32.034 C 126.070 32.238,125.530 32.507,125.200 32.632 C 122.679 33.586,109.438 40.926,104.800 43.941 C 86.220 56.017,68.032 73.542,55.856 91.100 C 55.055 92.255,53.770 94.098,53.000 95.196 C 52.230 96.294,51.600 97.338,51.600 97.516 C 51.600 97.694,51.383 98.057,51.118 98.322 C 50.662 98.778,48.775 101.974,47.410 104.600 C 47.067 105.260,46.068 107.060,45.189 108.600 C 43.845 110.956,41.637 115.386,39.009 121.000 C 38.700 121.660,38.063 123.190,37.594 124.400 C 37.124 125.610,36.495 127.140,36.197 127.800 C 35.899 128.460,35.541 129.450,35.402 130.000 C 35.263 130.550,34.982 131.360,34.777 131.800 C 33.068 135.462,28.192 152.624,27.567 157.176 C 27.372 158.592,26.940 160.690,26.606 161.837 C 26.273 162.985,26.000 164.739,26.000 165.735 C 26.000 166.732,25.744 168.774,25.430 170.274 C 23.873 177.731,23.859 205.501,25.409 213.744 C 25.734 215.473,26.000 217.608,26.000 218.486 C 26.000 219.365,26.270 221.126,26.600 222.398 C 26.929 223.671,27.372 225.767,27.583 227.056 C 28.512 232.737,32.633 247.532,34.586 252.200 C 34.862 252.860,35.490 254.480,35.981 255.800 C 38.804 263.387,42.842 271.899,46.851 278.712 C 47.923 280.534,48.800 282.100,48.800 282.192 C 48.800 282.364,50.106 284.400,52.855 288.513 C 53.705 289.784,54.400 290.926,54.400 291.049 C 54.400 291.253,54.765 291.770,56.626 294.200 C 56.963 294.640,58.265 296.372,59.519 298.049 C 73.386 316.587,92.617 333.583,112.600 344.961 C 114.800 346.214,116.870 347.396,117.200 347.589 C 118.348 348.258,124.213 351.134,126.200 352.003 C 127.300 352.483,128.740 353.140,129.400 353.462 C 130.060 353.784,131.770 354.508,133.200 355.072 C 134.630 355.636,136.340 356.337,137.000 356.631 C 138.544 357.317,141.415 358.341,143.200 358.842 C 143.970 359.058,145.230 359.472,146.000 359.762 C 150.272 361.374,163.665 364.827,165.600 364.815 C 166.150 364.811,167.410 365.054,168.400 365.354 C 169.390 365.654,171.370 366.022,172.800 366.172 C 174.230 366.321,177.110 366.696,179.200 367.005 C 188.757 368.416,218.884 368.431,221.159 367.025 C 221.346 366.910,223.277 366.621,225.450 366.385 C 227.622 366.148,230.120 365.763,231.000 365.528 C 231.880 365.294,233.590 364.966,234.800 364.799 C 238.532 364.285,250.063 361.282,253.600 359.904 C 254.150 359.689,255.410 359.283,256.400 359.002 C 258.773 358.327,260.636 357.654,262.644 356.744 C 263.548 356.335,264.423 356.000,264.588 356.000 C 265.641 356.000,279.812 349.313,285.000 346.367 C 286.540 345.493,288.250 344.560,288.800 344.293 C 289.350 344.027,290.017 343.627,290.282 343.405 C 290.547 343.182,292.220 342.100,294.001 341.000 C 295.781 339.900,298.123 338.370,299.205 337.600 C 300.287 336.830,302.088 335.570,303.208 334.800 C 314.342 327.148,329.840 312.041,339.525 299.400 C 344.078 293.457,343.579 294.132,345.000 292.000 C 345.660 291.010,346.335 290.020,346.500 289.800 C 350.381 284.621,359.252 267.978,362.598 259.600 C 363.169 258.170,363.803 256.640,364.007 256.200 C 364.395 255.365,364.766 254.312,366.544 249.000 C 369.462 240.289,370.822 235.247,373.018 225.000 C 373.348 223.460,373.797 220.490,374.014 218.400 C 374.232 216.310,374.595 214.060,374.821 213.400 C 376.143 209.537,376.138 174.504,374.815 170.576 C 374.597 169.929,374.248 167.780,374.038 165.800 C 373.121 157.145,367.482 135.991,363.826 127.498 C 363.519 126.784,362.869 125.210,362.381 124.000 C 359.160 116.007,351.357 101.408,346.936 95.106 C 341.086 86.764,339.811 85.021,337.029 81.554 C 330.494 73.411,319.677 62.459,312.199 56.414 C 310.439 54.992,308.910 53.731,308.800 53.612 C 308.155 52.915,300.365 47.341,296.800 45.026 C 294.490 43.526,291.970 41.885,291.200 41.379 C 290.430 40.873,288.990 40.021,288.000 39.487 C 287.010 38.952,284.850 37.769,283.200 36.857 C 280.512 35.371,274.613 32.450,271.400 31.014 C 270.740 30.718,269.378 30.100,268.374 29.639 C 267.369 29.177,266.379 28.799,266.174 28.798 C 265.968 28.796,265.260 28.505,264.600 28.149 C 263.940 27.794,262.860 27.357,262.200 27.177 C 261.540 26.997,259.740 26.378,258.200 25.802 C 255.457 24.775,254.264 24.397,248.600 22.756 C 242.127 20.881,229.361 18.009,227.396 17.986 C 226.738 17.978,224.760 17.712,223.000 17.395 C 220.203 16.891,211.398 16.249,202.600 15.908 C 201.060 15.849,196.650 15.932,192.800 16.094 M211.000 38.420 C 214.300 38.656,218.710 39.130,220.800 39.475 C 222.890 39.820,225.680 40.240,227.000 40.407 C 229.320 40.702,230.245 40.902,235.400 42.224 C 236.720 42.563,238.250 42.945,238.800 43.074 C 240.668 43.510,240.826 43.913,239.839 45.728 C 234.873 54.863,233.453 58.060,231.638 64.200 C 227.670 77.623,227.591 95.214,231.444 107.339 C 232.425 110.425,232.775 113.235,232.204 113.454 C 230.308 114.181,206.121 107.022,204.220 105.170 C 204.011 104.967,203.593 104.800,203.291 104.800 C 202.693 104.800,194.466 100.848,191.661 99.214 C 185.371 95.549,183.567 94.392,179.800 91.608 C 165.543 81.072,154.186 68.194,147.556 55.044 C 145.148 50.268,144.776 48.581,146.000 47.992 C 148.572 46.755,150.541 46.000,151.197 46.000 C 151.624 46.000,152.564 45.749,153.286 45.441 C 154.009 45.134,156.040 44.490,157.800 44.011 C 159.560 43.531,161.810 42.887,162.800 42.579 C 163.790 42.270,165.590 41.841,166.800 41.623 C 168.010 41.406,169.900 41.049,171.000 40.830 C 176.607 39.713,180.704 39.135,185.600 38.770 C 188.570 38.548,191.270 38.305,191.600 38.230 C 193.021 37.905,205.495 38.027,211.000 38.420 M271.200 55.600 C 272.319 56.260,273.327 56.800,273.440 56.800 C 273.932 56.800,281.842 61.649,286.600 64.869 C 292.008 68.528,293.002 69.260,295.750 71.612 C 296.657 72.389,298.300 73.731,299.400 74.595 C 308.351 81.624,328.509 104.785,328.904 108.494 C 329.114 110.470,315.713 108.178,310.165 105.289 C 309.744 105.070,308.410 104.466,307.200 103.946 C 305.290 103.125,303.428 102.139,300.871 100.595 C 291.656 95.032,281.697 84.354,276.068 74.000 C 273.247 68.812,269.603 61.221,269.598 60.522 C 269.596 60.345,269.332 59.696,269.011 59.080 C 267.979 57.102,267.560 55.073,268.110 54.724 C 268.844 54.257,268.996 54.300,271.200 55.600 M125.623 59.387 C 125.441 59.614,125.164 60.430,125.007 61.200 C 124.850 61.970,124.469 62.999,124.161 63.486 C 123.852 63.973,123.600 64.576,123.600 64.825 C 123.600 65.075,123.344 65.846,123.030 66.540 C 122.717 67.233,121.889 69.150,121.189 70.800 C 119.463 74.872,115.119 83.200,114.722 83.200 C 114.545 83.200,114.395 83.425,114.389 83.700 C 114.377 84.211,111.687 88.517,110.702 89.600 C 110.402 89.930,108.974 91.730,107.529 93.600 C 104.213 97.891,101.377 100.582,95.400 105.110 C 92.322 107.441,85.605 110.778,81.600 111.965 C 79.950 112.454,77.724 113.112,76.654 113.427 C 74.481 114.067,68.575 114.206,68.216 113.626 C 67.583 112.601,75.420 101.403,84.000 91.075 C 86.523 88.037,96.755 77.850,99.953 75.190 C 107.257 69.117,116.125 62.744,121.646 59.601 C 124.375 58.048,126.800 57.917,125.623 59.387 M254.323 79.900 C 261.809 95.736,275.305 111.028,289.448 119.701 C 292.139 121.352,300.424 125.600,300.951 125.600 C 301.205 125.600,302.084 125.960,302.904 126.400 C 303.725 126.840,304.713 127.201,305.099 127.202 C 305.484 127.204,306.303 127.467,306.917 127.788 C 307.531 128.108,308.701 128.491,309.517 128.638 C 310.333 128.785,311.321 129.071,311.714 129.274 C 312.107 129.477,313.907 129.901,315.714 130.216 C 317.521 130.531,319.810 130.965,320.800 131.181 C 321.790 131.396,326.740 131.693,331.800 131.840 C 342.167 132.140,341.963 132.078,343.014 135.242 C 343.370 136.314,343.827 137.293,344.031 137.419 C 344.234 137.544,344.400 137.948,344.400 138.316 C 344.400 138.684,344.739 139.888,345.152 140.992 C 346.440 144.429,346.862 145.739,347.280 147.600 C 347.502 148.590,347.845 149.571,348.042 149.780 C 349.701 151.542,347.894 152.485,343.748 152.023 C 327.369 150.197,288.291 149.557,275.800 150.911 C 270.016 151.538,258.333 153.313,256.809 153.797 C 256.474 153.903,254.760 154.270,253.000 154.613 C 245.703 156.032,244.495 156.294,244.091 156.543 C 243.859 156.687,242.438 157.066,240.934 157.386 C 235.498 158.541,232.685 159.233,232.049 159.574 C 231.692 159.765,230.500 160.052,229.400 160.211 C 228.300 160.370,227.220 160.642,227.000 160.814 C 226.780 160.985,225.564 161.317,224.299 161.550 C 223.033 161.783,221.679 162.144,221.290 162.352 C 220.901 162.560,219.686 162.916,218.591 163.143 C 217.496 163.370,214.260 164.133,211.400 164.838 C 202.696 166.984,193.142 166.613,184.600 163.799 C 183.720 163.509,182.280 163.153,181.400 163.007 C 180.520 162.862,178.945 162.486,177.900 162.172 C 176.855 161.857,175.145 161.343,174.100 161.028 C 173.055 160.714,171.480 160.342,170.600 160.202 C 169.720 160.061,168.370 159.709,167.600 159.419 C 166.830 159.129,165.300 158.704,164.200 158.475 C 161.051 157.818,158.320 157.178,156.800 156.741 C 155.225 156.288,151.746 155.534,147.000 154.617 C 145.240 154.277,143.577 153.916,143.305 153.814 C 142.076 153.354,130.380 151.571,124.400 150.932 C 111.740 149.578,78.753 150.032,59.021 151.832 C 51.410 152.526,51.111 152.427,52.100 149.538 C 52.427 148.582,53.107 146.450,53.611 144.800 C 54.115 143.150,54.769 141.233,55.064 140.540 C 55.359 139.846,55.600 139.016,55.600 138.693 C 55.600 138.371,55.990 137.612,56.467 137.006 L 57.333 135.904 62.767 136.182 C 68.618 136.481,77.213 135.911,80.600 135.001 C 81.700 134.705,83.451 134.348,84.491 134.208 C 85.531 134.068,86.476 133.800,86.593 133.612 C 86.709 133.424,87.568 133.141,88.502 132.985 C 89.436 132.828,90.555 132.452,90.989 132.150 C 91.423 131.847,92.033 131.600,92.345 131.600 C 92.657 131.600,93.652 131.254,94.556 130.832 C 95.460 130.409,97.100 129.654,98.200 129.154 C 106.305 125.467,117.015 116.875,124.320 108.200 C 126.247 105.911,126.100 106.100,128.206 103.223 C 130.819 99.654,134.922 92.977,137.250 88.504 C 139.620 83.950,139.864 83.880,142.455 87.005 C 146.150 91.462,157.598 102.493,162.400 106.225 C 166.493 109.405,177.215 116.800,177.734 116.800 C 177.844 116.800,179.306 117.611,180.984 118.603 C 183.859 120.303,189.051 122.880,194.000 125.064 C 195.210 125.598,196.678 126.297,197.262 126.617 C 197.846 126.938,198.566 127.201,198.862 127.202 C 199.158 127.204,199.862 127.446,200.427 127.741 C 200.991 128.035,201.981 128.400,202.627 128.552 C 203.272 128.704,204.340 129.070,205.000 129.367 C 205.660 129.663,207.550 130.303,209.200 130.789 C 210.850 131.275,212.740 131.854,213.400 132.077 C 214.060 132.300,215.412 132.626,216.405 132.802 C 217.398 132.978,219.108 133.388,220.205 133.714 C 222.722 134.461,226.049 135.136,230.415 135.785 C 232.294 136.064,234.184 136.400,234.615 136.532 C 237.825 137.512,272.750 139.784,273.474 139.059 C 273.617 138.917,272.837 137.495,271.741 135.900 C 265.672 127.065,264.068 124.748,262.298 122.263 C 260.281 119.430,258.311 116.139,257.592 114.400 C 257.365 113.850,256.932 112.860,256.631 112.200 C 256.123 111.089,255.467 109.483,253.853 105.400 C 249.005 93.140,249.440 69.570,254.323 79.900 M117.400 171.378 C 119.380 171.705,121.901 171.978,123.003 171.986 C 124.104 171.994,125.634 172.182,126.403 172.405 C 127.171 172.627,128.970 172.990,130.400 173.211 C 133.372 173.671,138.249 174.665,140.600 175.291 C 141.480 175.525,143.190 175.950,144.400 176.235 C 165.398 181.176,171.997 192.825,165.906 214.200 C 163.902 221.232,158.918 231.328,155.905 234.458 C 155.618 234.756,154.667 235.886,153.792 236.969 C 149.767 241.947,144.046 246.234,136.400 249.999 C 130.854 252.730,130.966 252.682,128.200 253.548 C 109.915 259.277,86.536 258.902,73.554 252.671 C 64.322 248.240,57.247 238.548,55.402 227.803 C 55.251 226.925,55.009 226.025,54.864 225.803 C 54.583 225.375,53.961 222.124,53.216 217.200 C 52.966 215.550,52.586 213.210,52.372 212.000 C 50.956 203.998,50.865 191.697,52.192 187.600 C 54.977 179.000,59.227 175.691,70.400 173.422 C 71.830 173.131,73.900 172.703,75.000 172.471 C 76.664 172.119,82.747 171.328,89.200 170.624 C 92.679 170.245,113.980 170.814,117.400 171.378 M314.093 171.976 C 317.333 172.178,320.145 172.443,320.341 172.564 C 320.537 172.685,322.385 173.058,324.449 173.393 C 333.457 174.855,338.378 176.552,341.600 179.308 C 343.225 180.698,346.000 184.685,346.000 185.630 C 346.000 185.986,346.315 186.890,346.700 187.639 C 347.699 189.581,347.704 207.465,346.706 212.000 C 346.344 213.650,345.924 216.166,345.774 217.591 C 345.623 219.016,345.253 220.884,344.950 221.741 C 344.648 222.599,344.400 223.767,344.400 224.337 C 344.400 224.907,344.145 226.099,343.834 226.987 C 343.523 227.874,342.858 229.950,342.357 231.600 C 336.544 250.743,321.729 258.068,292.203 256.401 C 277.776 255.586,261.573 251.133,255.909 246.425 C 255.629 246.193,254.140 245.035,252.600 243.853 C 239.840 234.056,229.936 207.194,234.169 193.859 C 237.395 183.693,243.602 179.635,262.000 175.660 C 269.274 174.089,271.816 173.620,274.400 173.373 C 275.830 173.236,277.720 172.937,278.600 172.707 C 283.276 171.490,300.583 171.133,314.093 171.976 M202.026 195.465 C 205.002 196.060,208.148 200.813,210.057 207.600 C 210.274 208.370,210.710 209.567,211.026 210.260 C 211.342 210.954,211.600 211.826,211.600 212.200 C 211.600 212.574,211.852 213.446,212.160 214.140 C 212.467 214.833,212.909 216.120,213.142 217.000 C 214.174 220.906,215.473 224.799,217.214 229.200 C 217.693 230.410,218.292 231.940,218.545 232.600 C 221.798 241.060,231.228 252.883,238.805 258.000 C 239.293 258.330,240.527 259.238,241.547 260.018 C 242.566 260.797,243.850 261.656,244.400 261.926 C 244.950 262.196,246.480 263.049,247.800 263.821 C 255.346 268.237,267.525 272.760,275.103 273.960 C 276.480 274.178,277.762 274.453,277.954 274.571 C 278.522 274.922,289.397 276.002,295.000 276.263 C 303.682 276.668,319.565 274.905,326.308 272.788 C 330.161 271.578,331.923 272.096,330.249 273.946 C 329.892 274.341,329.600 274.788,329.600 274.941 C 329.600 275.740,319.823 289.170,318.200 290.600 C 317.951 290.820,316.950 291.990,315.977 293.200 C 304.192 307.853,281.318 324.819,262.400 332.940 C 260.970 333.554,259.440 334.214,259.000 334.407 C 258.233 334.743,256.808 335.297,252.000 337.129 C 245.834 339.478,237.846 341.745,231.400 342.975 C 229.860 343.268,227.700 343.700,226.600 343.933 C 224.348 344.411,218.983 345.139,214.200 345.617 C 210.077 346.029,189.968 346.032,185.800 345.621 C 181.874 345.235,176.541 344.499,173.600 343.938 C 172.390 343.707,170.140 343.284,168.600 342.998 C 163.194 341.994,153.338 339.150,147.700 336.968 C 141.182 334.445,139.619 333.810,137.200 332.708 C 133.012 330.799,125.993 327.238,123.400 325.708 C 120.356 323.911,115.862 321.084,115.600 320.802 C 115.490 320.684,114.140 319.726,112.600 318.673 C 107.521 315.202,106.200 314.205,101.577 310.348 C 96.012 305.705,87.776 297.672,84.406 293.600 C 83.041 291.950,81.521 290.150,81.029 289.600 C 80.537 289.050,79.114 287.250,77.866 285.600 C 76.619 283.950,75.458 282.420,75.287 282.200 C 74.336 280.980,70.400 275.100,70.400 274.900 C 70.400 274.769,70.126 274.360,69.790 273.989 C 68.135 272.160,69.870 271.618,73.658 272.780 C 75.056 273.209,77.326 273.739,78.703 273.958 C 80.080 274.177,81.348 274.444,81.522 274.552 C 84.937 276.662,111.490 276.534,123.200 274.351 C 133.515 272.428,143.879 268.605,153.732 263.090 C 161.470 258.759,171.810 249.425,175.846 243.129 C 178.309 239.285,182.800 230.337,182.800 229.272 C 182.800 229.011,183.160 228.125,183.600 227.304 C 184.040 226.484,184.400 225.440,184.400 224.986 C 184.400 224.532,184.581 223.979,184.803 223.757 C 185.178 223.382,185.625 222.000,186.990 217.000 C 187.290 215.900,187.727 214.460,187.962 213.800 C 188.197 213.140,189.132 210.350,190.040 207.600 C 193.443 197.297,196.370 194.334,202.026 195.465 " stroke="none" fill="#231f20" fill-rule="evenodd"></path><path id="path2" d="M193.400 15.228 C 181.405 16.059,177.570 16.424,175.000 16.980 C 173.460 17.313,171.522 17.589,170.694 17.593 C 169.866 17.597,168.156 17.856,166.894 18.168 C 165.632 18.480,163.700 18.917,162.600 19.139 C 159.583 19.747,156.824 20.399,154.600 21.030 C 149.949 22.349,142.414 24.760,140.000 25.702 C 138.570 26.260,136.905 26.829,136.300 26.966 C 135.695 27.103,135.200 27.392,135.200 27.608 C 135.200 27.823,134.897 28.000,134.526 28.000 C 134.156 28.000,133.031 28.371,132.026 28.825 C 129.042 30.172,127.907 30.677,125.800 31.589 C 122.123 33.183,114.632 37.101,111.481 39.080 C 110.645 39.605,109.520 40.202,108.981 40.407 C 108.441 40.612,108.000 40.965,108.000 41.190 C 108.000 41.416,107.774 41.600,107.497 41.600 C 107.221 41.600,105.597 42.590,103.889 43.800 C 102.181 45.010,100.690 46.000,100.576 46.000 C 100.210 46.000,97.812 47.781,97.480 48.300 C 97.304 48.575,96.972 48.800,96.741 48.800 C 96.228 48.800,90.076 53.588,86.000 57.160 C 84.350 58.606,82.371 60.331,81.602 60.994 C 79.825 62.526,70.587 71.781,69.005 73.615 C 68.347 74.377,66.718 76.260,65.384 77.800 C 62.225 81.447,58.894 85.649,56.981 88.400 C 53.370 93.592,50.453 97.930,49.837 99.024 C 49.473 99.671,48.823 100.740,48.392 101.400 C 47.961 102.060,47.483 102.870,47.329 103.200 C 47.175 103.530,46.518 104.700,45.870 105.800 C 43.839 109.247,40.855 115.176,39.144 119.164 C 37.457 123.098,36.203 125.986,35.570 127.400 C 35.057 128.544,34.469 130.249,32.111 137.435 C 30.226 143.180,29.582 145.350,28.031 151.200 C 27.380 153.655,26.613 157.790,25.192 166.500 C 24.968 167.875,24.620 171.160,24.418 173.800 C 24.216 176.440,23.841 180.310,23.584 182.400 C 22.783 188.915,23.832 211.777,25.171 217.000 C 25.396 217.880,25.585 219.411,25.590 220.403 C 25.596 221.394,25.791 222.834,26.025 223.603 C 26.259 224.371,26.687 226.350,26.976 228.000 C 28.617 237.356,33.433 252.433,38.094 262.800 C 38.440 263.570,39.123 265.100,39.611 266.200 C 42.466 272.629,47.677 282.043,51.500 287.676 C 52.215 288.730,52.800 289.691,52.800 289.812 C 52.800 290.021,54.376 292.376,54.800 292.800 C 54.910 292.910,55.801 294.170,56.779 295.600 C 57.757 297.030,58.666 298.290,58.797 298.400 C 58.929 298.510,60.084 299.950,61.364 301.600 C 67.932 310.065,79.098 321.541,87.000 327.947 C 88.540 329.196,90.160 330.517,90.600 330.884 C 95.175 334.697,107.424 343.128,110.600 344.650 C 111.260 344.967,112.340 345.569,113.000 345.988 C 113.660 346.407,115.370 347.333,116.800 348.046 C 118.230 348.759,120.030 349.731,120.800 350.206 C 123.660 351.971,135.065 356.854,140.800 358.769 C 142.230 359.246,143.940 359.823,144.600 360.052 C 145.260 360.281,146.610 360.714,147.600 361.014 C 155.605 363.447,155.049 363.301,163.400 365.170 C 186.366 370.312,216.371 370.139,238.600 364.737 C 239.480 364.523,241.280 364.101,242.600 363.798 C 246.234 362.964,249.707 362.004,250.600 361.588 C 251.040 361.382,252.120 361.044,253.000 360.836 C 254.418 360.500,260.509 358.395,265.000 356.689 C 269.783 354.872,278.573 350.718,283.400 347.993 C 284.940 347.124,286.695 346.212,287.300 345.967 C 287.905 345.722,288.400 345.359,288.400 345.161 C 288.400 344.962,288.629 344.800,288.909 344.800 C 289.189 344.800,290.375 344.170,291.544 343.400 C 292.713 342.630,293.757 342.000,293.863 342.000 C 294.296 342.000,306.056 333.647,309.493 330.898 C 319.086 323.226,330.167 312.299,336.748 304.022 C 338.420 301.920,340.150 299.782,340.594 299.271 C 341.813 297.865,348.800 287.719,348.800 287.354 C 348.800 287.265,349.430 286.295,350.200 285.200 C 350.970 284.105,351.600 283.125,351.600 283.024 C 351.600 282.923,352.140 282.040,352.800 281.062 C 353.460 280.084,354.000 279.098,354.000 278.871 C 354.000 278.643,354.229 278.219,354.510 277.929 C 355.393 277.013,361.299 264.736,363.231 259.800 C 363.748 258.480,364.402 257.045,364.685 256.611 C 364.968 256.177,365.200 255.448,365.200 254.991 C 365.200 254.534,365.366 253.989,365.569 253.780 C 365.886 253.454,367.296 249.270,370.827 238.172 C 371.252 236.836,371.600 235.273,371.600 234.698 C 371.600 234.123,371.807 233.145,372.059 232.526 C 372.311 231.907,372.744 230.140,373.021 228.600 C 373.299 227.060,373.713 224.810,373.944 223.600 C 374.748 219.373,375.239 215.765,375.634 211.200 C 375.852 208.670,376.222 204.890,376.456 202.800 C 377.260 195.601,376.324 172.845,374.996 167.318 C 374.668 165.953,374.400 164.050,374.400 163.090 C 374.400 162.131,374.147 160.458,373.838 159.373 C 373.529 158.288,373.156 156.500,373.008 155.400 C 372.861 154.300,372.489 152.590,372.182 151.600 C 371.875 150.610,371.235 148.270,370.761 146.400 C 370.029 143.514,367.293 134.894,365.555 130.000 C 364.891 128.130,363.532 124.882,361.622 120.600 C 361.131 119.500,360.496 118.060,360.210 117.400 C 358.985 114.572,355.044 106.989,354.736 106.867 C 354.551 106.793,354.400 106.555,354.400 106.337 C 354.400 105.825,351.112 100.242,350.708 100.067 C 350.538 99.993,350.400 99.733,350.400 99.488 C 350.400 99.108,348.607 96.203,348.001 95.600 C 347.524 95.126,346.000 92.808,346.000 92.557 C 346.000 92.406,345.370 91.514,344.600 90.574 C 343.830 89.634,343.200 88.748,343.200 88.605 C 343.200 88.338,338.769 82.505,336.662 80.000 C 327.246 68.802,311.330 53.784,303.771 48.965 C 303.127 48.555,302.510 48.124,302.400 48.009 C 301.861 47.446,299.585 46.000,299.236 46.000 C 299.018 46.000,298.696 45.775,298.520 45.500 C 298.182 44.972,295.788 43.200,295.412 43.200 C 295.291 43.200,294.331 42.615,293.278 41.900 C 291.303 40.559,290.744 40.221,287.632 38.488 C 286.624 37.927,285.170 37.111,284.400 36.675 C 283.630 36.238,281.380 35.077,279.400 34.094 C 277.420 33.111,275.530 32.147,275.200 31.951 C 274.870 31.755,274.330 31.492,274.000 31.366 C 273.276 31.090,270.071 29.757,267.600 28.705 C 266.610 28.283,265.322 27.682,264.738 27.369 C 264.154 27.056,263.335 26.800,262.918 26.800 C 262.501 26.800,261.989 26.634,261.780 26.431 C 260.697 25.378,244.832 20.634,237.400 19.140 C 236.300 18.919,234.484 18.482,233.365 18.169 C 232.246 17.856,230.536 17.597,229.565 17.593 C 228.594 17.589,226.540 17.313,225.000 16.980 C 222.360 16.409,219.198 16.115,205.800 15.200 C 199.708 14.784,199.815 14.783,193.400 15.228 M212.600 16.417 C 216.560 16.638,221.240 17.078,223.000 17.395 C 224.760 17.712,226.738 17.978,227.396 17.986 C 229.361 18.009,242.127 20.881,248.600 22.756 C 254.264 24.397,255.457 24.775,258.200 25.802 C 259.740 26.378,261.540 26.997,262.200 27.177 C 262.860 27.357,263.940 27.794,264.600 28.149 C 265.260 28.505,265.968 28.796,266.174 28.798 C 266.379 28.799,267.369 29.177,268.374 29.639 C 269.378 30.100,270.740 30.718,271.400 31.014 C 274.613 32.450,280.512 35.371,283.200 36.857 C 284.850 37.769,287.010 38.952,288.000 39.487 C 288.990 40.021,290.430 40.873,291.200 41.379 C 291.970 41.885,294.490 43.526,296.800 45.026 C 300.365 47.341,308.155 52.915,308.800 53.612 C 308.910 53.731,310.439 54.992,312.199 56.414 C 319.677 62.459,330.494 73.411,337.029 81.554 C 339.811 85.021,341.086 86.764,346.936 95.106 C 351.357 101.408,359.160 116.007,362.381 124.000 C 362.869 125.210,363.519 126.784,363.826 127.498 C 367.482 135.991,373.121 157.145,374.038 165.800 C 374.248 167.780,374.597 169.929,374.815 170.576 C 376.138 174.504,376.143 209.537,374.821 213.400 C 374.595 214.060,374.232 216.310,374.014 218.400 C 373.797 220.490,373.348 223.460,373.018 225.000 C 370.822 235.247,369.462 240.289,366.544 249.000 C 364.766 254.312,364.395 255.365,364.007 256.200 C 363.803 256.640,363.169 258.170,362.598 259.600 C 359.252 267.978,350.381 284.621,346.500 289.800 C 346.335 290.020,345.660 291.010,345.000 292.000 C 343.579 294.132,344.078 293.457,339.525 299.400 C 329.840 312.041,314.342 327.148,303.208 334.800 C 302.088 335.570,300.287 336.830,299.205 337.600 C 298.123 338.370,295.781 339.900,294.001 341.000 C 292.220 342.100,290.547 343.182,290.282 343.405 C 290.017 343.627,289.350 344.027,288.800 344.293 C 288.250 344.560,286.540 345.493,285.000 346.367 C 279.812 349.313,265.641 356.000,264.588 356.000 C 264.423 356.000,263.548 356.335,262.644 356.744 C 260.636 357.654,258.773 358.327,256.400 359.002 C 255.410 359.283,254.150 359.689,253.600 359.904 C 250.063 361.282,238.532 364.285,234.800 364.799 C 233.590 364.966,231.880 365.294,231.000 365.528 C 230.120 365.763,227.622 366.148,225.450 366.385 C 223.277 366.621,221.346 366.910,221.159 367.025 C 218.884 368.431,188.757 368.416,179.200 367.005 C 177.110 366.696,174.230 366.321,172.800 366.172 C 171.370 366.022,169.390 365.654,168.400 365.354 C 167.410 365.054,166.150 364.811,165.600 364.815 C 163.665 364.827,150.272 361.374,146.000 359.762 C 145.230 359.472,143.970 359.058,143.200 358.842 C 141.415 358.341,138.544 357.317,137.000 356.631 C 136.340 356.337,134.630 355.636,133.200 355.072 C 131.770 354.508,130.060 353.784,129.400 353.462 C 128.740 353.140,127.300 352.483,126.200 352.003 C 124.213 351.134,118.348 348.258,117.200 347.589 C 116.870 347.396,114.800 346.214,112.600 344.961 C 92.617 333.583,73.386 316.587,59.519 298.049 C 58.265 296.372,56.963 294.640,56.626 294.200 C 54.765 291.770,54.400 291.253,54.400 291.049 C 54.400 290.926,53.705 289.784,52.855 288.513 C 50.106 284.400,48.800 282.364,48.800 282.192 C 48.800 282.100,47.923 280.534,46.851 278.712 C 42.842 271.899,38.804 263.387,35.981 255.800 C 35.490 254.480,34.862 252.860,34.586 252.200 C 32.633 247.532,28.512 232.737,27.583 227.056 C 27.372 225.767,26.929 223.671,26.600 222.398 C 26.270 221.126,26.000 219.365,26.000 218.486 C 26.000 217.608,25.734 215.473,25.409 213.744 C 23.859 205.501,23.873 177.731,25.430 170.274 C 25.744 168.774,26.000 166.732,26.000 165.735 C 26.000 164.739,26.273 162.985,26.606 161.837 C 26.940 160.690,27.372 158.592,27.567 157.176 C 28.192 152.624,33.068 135.462,34.777 131.800 C 34.982 131.360,35.263 130.550,35.402 130.000 C 35.541 129.450,35.899 128.460,36.197 127.800 C 36.495 127.140,37.124 125.610,37.594 124.400 C 38.063 123.190,38.700 121.660,39.009 121.000 C 41.637 115.386,43.845 110.956,45.189 108.600 C 46.068 107.060,47.067 105.260,47.410 104.600 C 48.775 101.974,50.662 98.778,51.118 98.322 C 51.383 98.057,51.600 97.694,51.600 97.516 C 51.600 97.338,52.230 96.294,53.000 95.196 C 53.770 94.098,55.055 92.255,55.856 91.100 C 68.032 73.542,86.220 56.017,104.800 43.941 C 109.438 40.926,122.679 33.586,125.200 32.632 C 125.530 32.507,126.070 32.238,126.400 32.034 C 126.730 31.829,128.800 30.916,131.000 30.003 C 133.200 29.091,135.360 28.182,135.800 27.983 C 136.240 27.784,137.410 27.338,138.400 26.990 C 158.510 19.938,173.699 16.896,192.800 16.094 C 200.286 15.780,201.492 15.799,212.600 16.417 M191.600 38.230 C 191.270 38.305,188.570 38.548,185.600 38.770 C 180.704 39.135,176.607 39.713,171.000 40.830 C 169.900 41.049,168.010 41.406,166.800 41.623 C 165.590 41.841,163.790 42.270,162.800 42.579 C 161.810 42.887,159.560 43.531,157.800 44.011 C 156.040 44.490,154.009 45.134,153.286 45.441 C 152.564 45.749,151.624 46.000,151.197 46.000 C 150.541 46.000,148.572 46.755,146.000 47.992 C 144.776 48.581,145.148 50.268,147.556 55.044 C 154.186 68.194,165.543 81.072,179.800 91.608 C 183.567 94.392,185.371 95.549,191.661 99.214 C 194.466 100.848,202.693 104.800,203.291 104.800 C 203.593 104.800,204.011 104.967,204.220 105.170 C 206.121 107.022,230.308 114.181,232.204 113.454 C 232.775 113.235,232.425 110.425,231.444 107.339 C 227.591 95.214,227.670 77.623,231.638 64.200 C 233.453 58.060,234.873 54.863,239.839 45.728 C 240.826 43.913,240.668 43.510,238.800 43.074 C 238.250 42.945,236.720 42.563,235.400 42.224 C 230.245 40.902,229.320 40.702,227.000 40.407 C 225.680 40.240,222.890 39.820,220.800 39.475 C 213.914 38.339,194.708 37.520,191.600 38.230 M210.392 39.207 C 219.418 39.763,231.352 41.611,237.300 43.375 C 239.703 44.087,240.138 44.738,239.033 45.969 C 238.279 46.808,234.400 54.253,234.400 54.861 C 234.400 55.123,234.168 55.621,233.885 55.969 C 233.602 56.316,232.951 57.950,232.438 59.600 C 231.925 61.250,231.280 63.140,231.004 63.800 C 230.450 65.124,229.760 68.119,229.162 71.800 C 228.947 73.120,228.577 75.370,228.340 76.800 C 227.657 80.911,227.469 89.189,227.988 92.251 C 228.245 93.763,228.604 96.452,228.787 98.226 C 228.969 100.001,229.407 102.302,229.759 103.340 C 230.112 104.379,230.406 105.807,230.414 106.514 C 230.422 107.221,230.686 108.250,231.000 108.800 C 232.088 110.704,231.795 112.936,230.500 112.608 C 229.895 112.455,228.500 112.168,227.400 111.970 C 226.300 111.771,223.510 111.060,221.200 110.388 C 218.890 109.716,216.182 108.930,215.182 108.641 C 214.181 108.352,212.978 107.909,212.508 107.658 C 212.037 107.406,211.345 107.200,210.970 107.200 C 210.343 107.200,208.318 106.376,205.468 104.962 C 204.845 104.653,204.144 104.400,203.911 104.400 C 203.678 104.400,202.748 104.055,201.844 103.632 C 200.940 103.210,199.930 102.761,199.600 102.635 C 199.270 102.508,198.730 102.243,198.400 102.045 C 198.070 101.847,197.350 101.488,196.800 101.246 C 196.250 101.004,195.530 100.637,195.200 100.430 C 194.870 100.223,192.980 99.110,191.000 97.957 C 184.753 94.318,177.725 89.568,175.520 87.494 C 175.231 87.222,173.916 86.104,172.597 85.009 C 164.781 78.516,156.024 68.446,151.545 60.800 C 145.951 51.250,144.925 48.000,147.502 48.000 C 147.819 48.000,148.646 47.749,149.340 47.443 C 150.866 46.769,153.893 45.755,156.600 45.011 C 157.700 44.709,159.950 44.087,161.600 43.628 C 163.250 43.170,165.703 42.619,167.052 42.406 C 168.400 42.192,169.942 41.850,170.478 41.646 C 171.014 41.443,172.520 41.157,173.826 41.012 C 175.132 40.867,177.190 40.553,178.400 40.315 C 184.560 39.104,200.018 38.568,210.392 39.207 M268.110 54.724 C 267.560 55.073,267.979 57.102,269.011 59.080 C 269.332 59.696,269.596 60.345,269.598 60.522 C 269.603 61.221,273.247 68.812,276.068 74.000 C 281.697 84.354,291.656 95.032,300.871 100.595 C 303.428 102.139,305.290 103.125,307.200 103.946 C 308.410 104.466,309.744 105.070,310.165 105.289 C 315.713 108.178,329.114 110.470,328.904 108.494 C 328.509 104.785,308.351 81.624,299.400 74.595 C 298.300 73.731,296.657 72.389,295.750 71.612 C 293.002 69.260,292.008 68.528,286.600 64.869 C 281.842 61.649,273.932 56.800,273.440 56.800 C 273.327 56.800,272.319 56.260,271.200 55.600 C 268.996 54.300,268.844 54.257,268.110 54.724 M272.200 56.817 C 273.300 57.457,274.740 58.254,275.400 58.589 C 276.060 58.924,277.079 59.514,277.665 59.899 C 278.250 60.285,279.524 61.084,280.495 61.676 C 297.467 72.019,316.349 89.984,326.032 105.000 C 326.599 105.880,327.366 106.849,327.737 107.153 C 329.713 108.777,326.352 109.129,321.400 107.816 C 320.300 107.525,318.659 107.179,317.753 107.047 C 316.847 106.915,315.587 106.537,314.953 106.206 C 314.319 105.876,313.429 105.604,312.976 105.602 C 312.524 105.601,311.804 105.336,311.376 105.013 C 310.949 104.690,310.330 104.417,310.000 104.406 C 309.670 104.395,307.870 103.586,306.000 102.607 C 304.130 101.629,302.150 100.605,301.600 100.332 C 301.050 100.059,299.759 99.197,298.730 98.418 C 297.702 97.638,296.264 96.550,295.535 96.000 C 289.923 91.766,280.613 81.205,278.256 76.400 C 278.094 76.070,277.523 75.080,276.986 74.200 C 276.449 73.320,275.810 72.105,275.566 71.500 C 275.321 70.895,274.974 70.400,274.793 70.400 C 274.612 70.400,274.348 69.872,274.206 69.228 C 274.064 68.583,273.690 67.841,273.374 67.579 C 273.058 67.317,272.800 66.837,272.800 66.513 C 272.800 66.189,272.540 65.446,272.222 64.862 C 271.117 62.832,269.380 58.434,268.921 56.500 C 268.623 55.249,269.681 55.351,272.200 56.817 M124.400 58.385 C 121.470 59.024,109.492 67.258,99.953 75.190 C 96.755 77.850,86.523 88.037,84.000 91.075 C 75.420 101.403,67.583 112.601,68.216 113.626 C 68.575 114.206,74.481 114.067,76.654 113.427 C 77.724 113.112,79.950 112.454,81.600 111.965 C 85.605 110.778,92.322 107.441,95.400 105.110 C 101.377 100.582,104.213 97.891,107.529 93.600 C 108.974 91.730,110.402 89.930,110.702 89.600 C 111.687 88.517,114.377 84.211,114.389 83.700 C 114.395 83.425,114.545 83.200,114.722 83.200 C 115.119 83.200,119.463 74.872,121.189 70.800 C 121.889 69.150,122.717 67.233,123.030 66.540 C 123.344 65.846,123.600 65.075,123.600 64.825 C 123.600 64.576,123.852 63.973,124.161 63.486 C 124.469 62.999,124.850 61.970,125.007 61.200 C 125.164 60.430,125.441 59.614,125.623 59.387 C 126.163 58.713,125.476 58.150,124.400 58.385 M124.492 60.100 C 124.399 60.815,123.980 62.132,123.561 63.026 C 123.143 63.921,122.800 64.851,122.800 65.094 C 122.800 65.337,122.543 66.045,122.229 66.668 C 121.916 67.290,121.241 68.787,120.729 69.994 C 119.612 72.633,115.239 81.397,114.340 82.800 C 113.987 83.350,112.875 85.083,111.867 86.651 C 108.432 92.000,101.611 99.752,98.187 102.200 C 97.572 102.640,96.868 103.180,96.623 103.400 C 95.784 104.155,93.632 105.600,93.348 105.600 C 93.191 105.600,92.779 105.848,92.431 106.150 C 87.787 110.197,69.195 115.349,69.494 112.507 C 69.634 111.174,79.548 96.966,82.579 93.753 C 82.810 93.507,84.169 91.977,85.597 90.353 C 90.627 84.633,93.464 81.850,100.000 76.228 C 105.415 71.570,117.049 62.800,117.812 62.800 C 117.920 62.800,118.872 62.193,119.927 61.452 C 120.982 60.710,122.240 59.978,122.723 59.825 C 123.205 59.671,123.600 59.378,123.600 59.173 C 123.600 58.968,123.839 58.800,124.131 58.800 C 124.498 58.800,124.609 59.201,124.492 60.100 M251.030 77.867 C 249.415 82.075,251.090 98.414,253.853 105.400 C 255.467 109.483,256.123 111.089,256.631 112.200 C 256.932 112.860,257.365 113.850,257.592 114.400 C 258.311 116.139,260.281 119.430,262.298 122.263 C 264.068 124.748,265.672 127.065,271.741 135.900 C 272.837 137.495,273.617 138.917,273.474 139.059 C 272.750 139.784,237.825 137.512,234.615 136.532 C 234.184 136.400,232.294 136.064,230.415 135.785 C 226.049 135.136,222.722 134.461,220.205 133.714 C 219.108 133.388,217.398 132.978,216.405 132.802 C 215.412 132.626,214.060 132.300,213.400 132.077 C 212.740 131.854,210.850 131.275,209.200 130.789 C 207.550 130.303,205.660 129.663,205.000 129.367 C 204.340 129.070,203.272 128.704,202.627 128.552 C 201.981 128.400,200.991 128.035,200.427 127.741 C 199.862 127.446,199.158 127.204,198.862 127.202 C 198.566 127.201,197.846 126.938,197.262 126.617 C 196.678 126.297,195.210 125.598,194.000 125.064 C 189.051 122.880,183.859 120.303,180.984 118.603 C 179.306 117.611,177.844 116.800,177.734 116.800 C 177.215 116.800,166.493 109.405,162.400 106.225 C 157.598 102.493,146.150 91.462,142.455 87.005 C 139.864 83.880,139.620 83.950,137.250 88.504 C 134.922 92.977,130.819 99.654,128.206 103.223 C 126.100 106.100,126.247 105.911,124.320 108.200 C 117.015 116.875,106.305 125.467,98.200 129.154 C 97.100 129.654,95.460 130.409,94.556 130.832 C 93.652 131.254,92.657 131.600,92.345 131.600 C 92.033 131.600,91.423 131.847,90.989 132.150 C 90.555 132.452,89.436 132.828,88.502 132.985 C 87.568 133.141,86.709 133.424,86.593 133.612 C 86.476 133.800,85.531 134.068,84.491 134.208 C 83.451 134.348,81.700 134.705,80.600 135.001 C 77.213 135.911,68.618 136.481,62.767 136.182 L 57.333 135.904 56.467 137.006 C 55.990 137.612,55.600 138.371,55.600 138.693 C 55.600 139.016,55.359 139.846,55.064 140.540 C 54.769 141.233,54.115 143.150,53.611 144.800 C 53.107 146.450,52.427 148.582,52.100 149.538 C 51.111 152.427,51.410 152.526,59.021 151.832 C 78.753 150.032,111.740 149.578,124.400 150.932 C 130.380 151.571,142.076 153.354,143.305 153.814 C 143.577 153.916,145.240 154.277,147.000 154.617 C 151.746 155.534,155.225 156.288,156.800 156.741 C 158.320 157.178,161.051 157.818,164.200 158.475 C 165.300 158.704,166.830 159.129,167.600 159.419 C 168.370 159.709,169.720 160.061,170.600 160.202 C 171.480 160.342,173.055 160.714,174.100 161.028 C 175.145 161.343,176.855 161.857,177.900 162.172 C 178.945 162.486,180.520 162.862,181.400 163.007 C 182.280 163.153,183.720 163.509,184.600 163.799 C 193.142 166.613,202.696 166.984,211.400 164.838 C 214.260 164.133,217.496 163.370,218.591 163.143 C 219.686 162.916,220.901 162.560,221.290 162.352 C 221.679 162.144,223.033 161.783,224.299 161.550 C 225.564 161.317,226.780 160.985,227.000 160.814 C 227.220 160.642,228.300 160.370,229.400 160.211 C 230.500 160.052,231.692 159.765,232.049 159.574 C 232.685 159.233,235.498 158.541,240.934 157.386 C 242.438 157.066,243.859 156.687,244.091 156.543 C 244.495 156.294,245.703 156.032,253.000 154.613 C 254.760 154.270,256.474 153.903,256.809 153.797 C 258.333 153.313,270.016 151.538,275.800 150.911 C 288.291 149.557,327.369 150.197,343.748 152.023 C 347.894 152.485,349.701 151.542,348.042 149.780 C 347.845 149.571,347.502 148.590,347.280 147.600 C 346.862 145.739,346.440 144.429,345.152 140.992 C 344.739 139.888,344.400 138.684,344.400 138.316 C 344.400 137.948,344.234 137.544,344.031 137.419 C 343.827 137.293,343.370 136.314,343.014 135.242 C 341.963 132.078,342.167 132.140,331.800 131.840 C 326.740 131.693,321.790 131.396,320.800 131.181 C 319.810 130.965,317.521 130.531,315.714 130.216 C 313.907 129.901,312.107 129.477,311.714 129.274 C 311.321 129.071,310.333 128.785,309.517 128.638 C 308.701 128.491,307.531 128.108,306.917 127.788 C 306.303 127.467,305.484 127.204,305.099 127.202 C 304.713 127.201,303.725 126.840,302.904 126.400 C 302.084 125.960,301.205 125.600,300.951 125.600 C 300.424 125.600,292.139 121.352,289.448 119.701 C 275.305 111.028,261.809 95.736,254.323 79.900 C 253.008 77.118,251.641 76.274,251.030 77.867 M254.024 81.047 C 254.748 82.503,255.715 84.258,256.174 84.947 C 256.632 85.636,257.229 86.650,257.501 87.200 C 258.162 88.541,258.858 89.602,263.266 96.000 C 267.148 101.633,273.839 108.738,279.632 113.378 C 281.264 114.685,282.782 115.945,283.005 116.178 C 283.578 116.777,285.920 118.400,286.210 118.400 C 286.344 118.400,287.026 118.832,287.727 119.360 C 291.125 121.920,302.560 127.600,304.318 127.600 C 304.568 127.600,305.364 127.855,306.086 128.167 C 308.366 129.150,312.616 130.400,313.678 130.400 C 314.240 130.400,315.462 130.669,316.394 130.998 C 319.019 131.924,334.180 133.300,337.878 132.948 C 340.387 132.709,342.400 133.789,342.400 135.374 C 342.400 135.625,342.760 136.537,343.200 137.400 C 343.640 138.263,344.006 139.246,344.014 139.585 C 344.021 139.923,344.375 140.920,344.800 141.800 C 345.225 142.680,345.579 143.811,345.586 144.314 C 345.594 144.817,345.873 145.645,346.208 146.155 C 346.542 146.666,346.857 148.054,346.908 149.241 L 347.000 151.400 345.800 151.366 C 345.140 151.347,342.350 151.127,339.600 150.879 C 314.627 148.618,283.157 148.701,268.200 151.067 C 266.000 151.414,263.120 151.847,261.800 152.027 C 258.633 152.459,248.241 154.711,242.600 156.187 C 237.556 157.507,235.263 158.064,233.527 158.391 C 232.496 158.585,231.305 158.930,230.878 159.158 C 230.452 159.386,229.135 159.740,227.952 159.945 C 226.768 160.149,225.260 160.501,224.600 160.726 C 223.240 161.190,220.905 161.800,217.400 162.607 C 216.080 162.911,214.280 163.338,213.400 163.555 C 202.091 166.351,197.888 166.351,186.600 163.556 C 185.720 163.338,183.920 162.911,182.600 162.607 C 179.137 161.810,176.771 161.193,175.400 160.731 C 174.740 160.508,173.120 160.085,171.800 159.790 C 168.424 159.036,165.998 158.405,164.600 157.915 C 163.940 157.684,162.320 157.281,161.000 157.018 C 159.680 156.756,158.330 156.424,158.000 156.282 C 157.670 156.140,156.050 155.731,154.400 155.373 C 152.750 155.016,148.970 154.191,146.000 153.539 C 143.030 152.888,139.250 152.178,137.600 151.960 C 135.950 151.743,133.953 151.393,133.161 151.183 C 132.370 150.974,129.580 150.618,126.961 150.393 C 124.343 150.168,120.400 149.814,118.200 149.606 C 108.035 148.647,74.943 149.434,59.249 151.008 C 56.086 151.325,53.324 151.477,53.111 151.345 C 52.621 151.042,53.050 147.802,53.792 146.200 C 54.412 144.861,55.535 141.532,55.883 140.000 C 56.008 139.450,56.421 138.563,56.802 138.029 L 57.493 137.059 66.247 136.983 C 74.555 136.912,79.353 136.427,83.333 135.255 C 84.030 135.050,85.950 134.490,87.600 134.011 C 89.250 133.532,91.110 132.884,91.732 132.570 C 92.355 132.257,93.039 132.000,93.251 132.000 C 93.463 132.000,95.024 131.350,96.718 130.555 C 98.413 129.760,100.160 128.942,100.600 128.737 C 102.741 127.743,106.942 124.977,111.200 121.759 C 114.445 119.307,121.796 112.185,125.211 108.185 C 129.323 103.368,135.411 94.037,137.934 88.685 C 139.335 85.712,140.200 85.036,141.072 86.235 C 143.381 89.407,151.341 97.605,156.574 102.200 C 158.077 103.520,159.508 104.787,159.754 105.014 C 159.999 105.242,160.920 105.962,161.800 106.614 C 162.679 107.267,163.748 108.115,164.175 108.500 C 164.972 109.219,174.329 115.600,174.586 115.600 C 174.665 115.600,175.687 116.230,176.856 117.000 C 178.025 117.770,179.112 118.400,179.271 118.400 C 179.430 118.400,180.334 118.913,181.280 119.541 C 183.399 120.946,191.068 124.800,191.745 124.800 C 192.017 124.800,192.450 125.010,192.707 125.267 C 193.152 125.712,194.053 126.101,197.200 127.206 C 197.970 127.477,199.140 127.921,199.800 128.193 C 203.389 129.673,205.502 130.400,206.219 130.400 C 206.661 130.400,207.399 130.664,207.860 130.987 C 208.321 131.310,209.486 131.697,210.449 131.846 C 211.412 131.996,212.555 132.362,212.989 132.659 C 213.423 132.957,214.239 133.200,214.803 133.200 C 215.367 133.200,216.852 133.560,218.104 134.000 C 219.356 134.440,220.823 134.800,221.364 134.800 C 221.905 134.800,222.835 134.985,223.430 135.211 C 225.476 135.989,239.009 138.061,245.800 138.635 C 254.289 139.354,273.026 140.152,273.862 139.832 C 274.613 139.543,274.262 137.583,273.368 137.080 C 273.056 136.904,272.800 136.582,272.800 136.364 C 272.800 135.852,271.150 133.496,270.500 133.080 C 270.225 132.904,270.000 132.587,270.000 132.376 C 270.000 131.981,268.913 130.371,264.556 124.316 C 262.266 121.132,258.000 114.268,258.000 113.766 C 258.000 113.473,256.513 110.035,255.795 108.668 C 255.468 108.045,255.200 107.262,255.200 106.928 C 255.200 106.594,254.943 105.754,254.629 105.060 C 252.822 101.072,251.421 92.600,251.409 85.600 C 251.396 77.475,251.852 76.681,254.024 81.047 M89.200 170.624 C 82.747 171.328,76.664 172.119,75.000 172.471 C 73.900 172.703,71.830 173.131,70.400 173.422 C 59.227 175.691,54.977 179.000,52.192 187.600 C 50.865 191.697,50.956 203.998,52.372 212.000 C 52.586 213.210,52.966 215.550,53.216 217.200 C 53.961 222.124,54.583 225.375,54.864 225.803 C 55.009 226.025,55.251 226.925,55.402 227.803 C 57.616 240.698,67.259 251.665,79.354 255.045 C 93.985 259.133,119.506 257.852,131.400 252.432 C 142.344 247.445,149.087 242.788,153.792 236.969 C 154.667 235.886,155.618 234.756,155.905 234.458 C 158.918 231.328,163.902 221.232,165.906 214.200 C 171.997 192.825,165.398 181.176,144.400 176.235 C 143.190 175.950,141.480 175.525,140.600 175.291 C 138.249 174.665,133.372 173.671,130.400 173.211 C 128.970 172.990,127.171 172.627,126.403 172.405 C 125.634 172.182,124.104 171.994,123.003 171.986 C 121.901 171.978,119.380 171.705,117.400 171.378 C 113.980 170.814,92.679 170.245,89.200 170.624 M114.800 171.802 C 127.705 173.257,134.682 174.411,140.462 176.047 C 141.926 176.461,143.407 176.800,143.754 176.800 C 144.509 176.800,148.809 178.132,152.400 179.478 C 166.268 184.677,170.489 196.921,164.785 215.400 C 163.721 218.847,158.745 229.819,157.982 230.400 C 157.838 230.510,157.488 231.039,157.206 231.575 C 155.986 233.889,148.776 241.278,144.800 244.290 C 142.037 246.383,135.944 249.721,131.400 251.631 C 123.448 254.973,105.498 257.652,96.553 256.831 C 75.572 254.905,66.800 250.801,60.971 240.182 C 57.494 233.849,56.027 229.380,54.593 220.752 C 54.278 218.856,53.835 216.819,53.610 216.226 C 53.384 215.633,53.200 214.365,53.200 213.409 C 53.200 212.453,52.923 210.260,52.585 208.535 C 50.898 199.929,51.688 189.041,54.392 183.645 C 56.190 180.059,62.861 175.205,66.004 175.198 C 66.552 175.196,67.516 174.926,68.146 174.598 C 68.776 174.269,69.676 174.000,70.146 174.000 C 70.616 174.001,72.890 173.644,75.200 173.208 C 85.842 171.200,103.802 170.562,114.800 171.802 M288.600 171.780 C 283.980 172.061,279.480 172.478,278.600 172.707 C 277.720 172.937,275.830 173.236,274.400 173.373 C 266.293 174.148,250.583 178.177,244.826 180.957 C 235.369 185.524,231.136 196.660,234.033 209.350 C 237.727 225.525,244.062 237.298,252.600 243.853 C 254.140 245.035,255.629 246.193,255.909 246.425 C 261.573 251.133,277.776 255.586,292.203 256.401 C 321.729 258.068,336.544 250.743,342.357 231.600 C 342.858 229.950,343.523 227.874,343.834 226.987 C 344.145 226.099,344.400 224.907,344.400 224.337 C 344.400 223.767,344.648 222.599,344.950 221.741 C 345.253 220.884,345.623 219.016,345.774 217.591 C 345.924 216.166,346.344 213.650,346.706 212.000 C 347.704 207.465,347.699 189.581,346.700 187.639 C 346.315 186.890,346.000 185.986,346.000 185.630 C 346.000 184.685,343.225 180.698,341.600 179.308 C 338.378 176.552,333.457 174.855,324.449 173.393 C 322.385 173.058,320.537 172.685,320.341 172.564 C 319.897 172.289,310.047 171.665,302.600 171.439 C 299.520 171.345,293.220 171.499,288.600 171.780 M317.831 173.031 C 319.828 173.363,322.708 173.792,324.231 173.986 C 327.164 174.359,328.880 174.751,333.400 176.078 C 340.827 178.260,343.950 181.305,346.245 188.600 C 347.257 191.818,347.271 206.255,346.267 210.619 C 345.915 212.149,345.442 214.660,345.215 216.200 C 340.802 246.223,329.740 255.721,299.200 255.714 C 289.677 255.711,287.397 255.522,278.200 253.973 C 274.792 253.399,267.738 251.368,264.800 250.115 C 256.620 246.625,253.065 244.081,246.800 237.229 C 246.470 236.868,245.661 235.769,245.001 234.787 C 244.342 233.804,243.708 232.910,243.593 232.800 C 243.478 232.690,243.164 232.150,242.895 231.600 C 242.626 231.050,242.251 230.330,242.061 230.000 C 241.872 229.670,241.432 228.770,241.083 228.000 C 233.039 210.245,231.936 196.661,237.820 187.797 C 241.048 182.933,250.543 178.319,260.521 176.767 C 261.798 176.568,263.153 176.239,263.532 176.036 C 263.911 175.833,265.657 175.469,267.411 175.228 C 269.165 174.986,271.140 174.626,271.800 174.428 C 272.460 174.231,274.440 173.955,276.200 173.816 C 277.960 173.676,280.120 173.371,281.000 173.137 C 285.452 171.954,310.901 171.881,317.831 173.031 M197.363 195.770 C 194.450 197.038,192.475 200.229,190.040 207.600 C 189.132 210.350,188.197 213.140,187.962 213.800 C 187.727 214.460,187.290 215.900,186.990 217.000 C 185.625 222.000,185.178 223.382,184.803 223.757 C 184.581 223.979,184.400 224.532,184.400 224.986 C 184.400 225.440,184.040 226.484,183.600 227.304 C 183.160 228.125,182.800 229.011,182.800 229.272 C 182.800 230.337,178.309 239.285,175.846 243.129 C 171.810 249.425,161.470 258.759,153.732 263.090 C 145.973 267.433,138.843 270.338,129.400 273.004 C 122.529 274.943,111.435 276.209,101.600 276.177 C 95.474 276.157,82.408 275.099,81.522 274.552 C 81.348 274.444,80.080 274.177,78.703 273.958 C 77.326 273.739,75.056 273.209,73.658 272.780 C 69.870 271.618,68.135 272.160,69.790 273.989 C 70.126 274.360,70.400 274.769,70.400 274.900 C 70.400 275.100,74.336 280.980,75.287 282.200 C 75.458 282.420,76.619 283.950,77.866 285.600 C 79.114 287.250,80.537 289.050,81.029 289.600 C 81.521 290.150,83.041 291.950,84.406 293.600 C 87.776 297.672,96.012 305.705,101.577 310.348 C 106.200 314.205,107.521 315.202,112.600 318.673 C 114.140 319.726,115.490 320.684,115.600 320.802 C 115.862 321.084,120.356 323.911,123.400 325.708 C 125.993 327.238,133.012 330.799,137.200 332.708 C 139.619 333.810,141.182 334.445,147.700 336.968 C 153.338 339.150,163.194 341.994,168.600 342.998 C 170.140 343.284,172.390 343.707,173.600 343.938 C 176.541 344.499,181.874 345.235,185.800 345.621 C 189.968 346.032,210.077 346.029,214.200 345.617 C 218.983 345.139,224.348 344.411,226.600 343.933 C 227.700 343.700,229.860 343.268,231.400 342.975 C 237.846 341.745,245.834 339.478,252.000 337.129 C 256.808 335.297,258.233 334.743,259.000 334.407 C 259.440 334.214,260.970 333.554,262.400 332.940 C 281.318 324.819,304.192 307.853,315.977 293.200 C 316.950 291.990,317.951 290.820,318.200 290.600 C 319.823 289.170,329.600 275.740,329.600 274.941 C 329.600 274.788,329.892 274.341,330.249 273.946 C 331.923 272.096,330.161 271.578,326.308 272.788 C 319.565 274.905,303.682 276.668,295.000 276.263 C 289.397 276.002,278.522 274.922,277.954 274.571 C 277.762 274.453,276.480 274.178,275.103 273.960 C 267.525 272.760,255.346 268.237,247.800 263.821 C 246.480 263.049,244.950 262.196,244.400 261.926 C 243.850 261.656,242.566 260.797,241.547 260.018 C 240.527 259.238,239.293 258.330,238.805 258.000 C 231.228 252.883,221.798 241.060,218.545 232.600 C 218.292 231.940,217.693 230.410,217.214 229.200 C 215.473 224.799,214.174 220.906,213.142 217.000 C 212.909 216.120,212.467 214.833,212.160 214.140 C 211.852 213.446,211.600 212.574,211.600 212.200 C 211.600 211.826,211.342 210.954,211.026 210.260 C 210.710 209.567,210.274 208.370,210.057 207.600 C 207.279 197.723,202.693 193.449,197.363 195.770 M202.532 196.546 C 205.090 197.615,207.158 201.058,209.409 208.000 C 210.016 209.870,210.667 211.571,210.856 211.780 C 211.045 211.989,211.200 212.592,211.200 213.120 C 211.200 213.647,211.452 214.646,211.760 215.340 C 212.067 216.033,212.501 217.320,212.723 218.200 C 213.205 220.111,213.903 222.160,214.630 223.800 C 214.923 224.460,215.355 225.757,215.592 226.683 C 215.828 227.609,216.197 228.474,216.411 228.607 C 216.625 228.739,216.800 229.247,216.800 229.735 C 216.800 230.223,217.032 230.977,217.315 231.411 C 217.598 231.845,218.261 233.280,218.788 234.600 C 221.821 242.193,228.260 250.380,236.365 256.952 C 239.319 259.347,243.050 262.000,243.464 262.000 C 243.614 262.000,244.021 262.252,244.369 262.560 C 245.880 263.900,257.935 270.000,259.070 270.000 C 259.404 270.000,260.154 270.256,260.738 270.568 C 262.059 271.275,265.252 272.335,267.506 272.815 C 268.444 273.015,269.557 273.363,269.979 273.589 C 270.402 273.815,271.176 274.000,271.701 274.000 C 272.225 274.000,273.992 274.356,275.627 274.791 C 277.262 275.225,279.410 275.592,280.400 275.605 C 281.390 275.618,283.370 275.885,284.800 276.200 C 288.512 277.016,308.027 277.022,311.400 276.208 C 312.720 275.889,314.700 275.618,315.800 275.605 C 316.900 275.592,318.520 275.389,319.400 275.154 C 320.280 274.919,322.172 274.502,323.604 274.229 C 325.036 273.955,326.599 273.522,327.078 273.266 C 327.983 272.781,330.000 272.624,330.000 273.038 C 330.000 273.620,318.926 289.278,318.005 290.000 C 317.864 290.110,316.279 291.848,314.483 293.863 C 305.584 303.844,295.477 312.665,285.000 319.597 C 282.580 321.198,280.112 322.843,279.516 323.254 C 278.920 323.664,278.367 324.000,278.286 324.000 C 278.206 324.000,276.174 325.099,273.770 326.442 C 271.367 327.785,269.040 329.045,268.600 329.241 C 268.160 329.437,267.530 329.748,267.200 329.931 C 264.915 331.198,263.159 332.000,262.670 332.000 C 262.355 332.000,261.874 332.270,261.600 332.600 C 261.326 332.930,260.806 333.200,260.445 333.200 C 260.084 333.200,259.116 333.560,258.296 334.000 C 257.475 334.440,256.482 334.800,256.090 334.800 C 255.699 334.800,255.023 335.047,254.589 335.349 C 254.155 335.651,253.170 336.034,252.400 336.200 C 251.630 336.366,250.645 336.749,250.211 337.051 C 249.777 337.353,249.000 337.600,248.485 337.600 C 247.969 337.600,247.154 337.812,246.674 338.072 C 246.193 338.332,244.900 338.778,243.800 339.064 C 242.700 339.349,239.730 340.133,237.200 340.805 C 234.670 341.477,230.981 342.308,229.002 342.651 C 227.024 342.995,225.101 343.439,224.729 343.638 C 224.357 343.837,223.186 344.001,222.126 344.003 C 221.067 344.004,218.490 344.288,216.400 344.634 C 211.400 345.461,193.911 345.841,189.000 345.229 C 187.020 344.983,183.420 344.594,181.000 344.365 C 178.580 344.135,176.055 343.783,175.389 343.580 C 174.724 343.378,172.654 342.942,170.789 342.611 C 168.925 342.280,165.330 341.456,162.800 340.778 C 160.270 340.101,157.288 339.313,156.173 339.027 C 155.058 338.740,153.765 338.302,153.299 338.053 C 152.833 337.804,152.126 337.599,151.726 337.598 C 151.327 337.596,150.517 337.343,149.927 337.035 C 149.337 336.727,148.257 336.345,147.527 336.187 C 146.797 336.028,145.845 335.651,145.411 335.349 C 144.977 335.047,144.340 334.800,143.996 334.800 C 143.651 334.800,142.663 334.440,141.800 334.000 C 140.937 333.560,139.931 333.200,139.564 333.200 C 139.198 333.200,138.674 332.930,138.400 332.600 C 138.126 332.270,137.680 332.000,137.408 332.000 C 136.837 332.000,127.675 327.332,124.348 325.345 C 123.109 324.605,121.993 324.000,121.868 324.000 C 121.552 324.000,115.698 320.163,111.200 317.007 C 105.919 313.302,96.908 305.691,92.223 300.978 C 87.095 295.818,81.033 288.904,78.334 285.137 C 74.549 279.854,70.000 273.250,70.000 273.039 C 70.000 272.583,72.205 272.831,73.200 273.400 C 73.750 273.714,74.662 273.978,75.227 273.986 C 75.792 273.994,77.592 274.356,79.227 274.791 C 80.862 275.225,83.036 275.585,84.057 275.591 C 85.079 275.596,87.271 275.881,88.929 276.223 C 92.486 276.959,112.344 276.858,116.800 276.082 C 118.230 275.833,120.525 275.442,121.900 275.214 C 127.544 274.279,129.462 273.870,130.660 273.349 C 131.354 273.047,132.316 272.800,132.800 272.800 C 133.284 272.800,134.246 272.542,134.940 272.226 C 135.633 271.910,136.830 271.471,137.600 271.250 C 150.355 267.595,166.878 256.253,174.720 245.767 C 177.895 241.522,183.200 231.704,183.200 230.072 C 183.200 229.811,183.560 228.925,184.000 228.104 C 184.440 227.284,184.800 226.309,184.800 225.938 C 184.800 225.568,185.048 224.755,185.351 224.132 C 186.116 222.562,187.600 217.942,187.600 217.132 C 187.600 216.765,187.848 215.955,188.151 215.332 C 188.455 214.710,189.103 212.940,189.593 211.400 C 193.978 197.604,196.936 194.208,202.532 196.546 M121.561 372.579 C 119.162 373.240,117.532 374.479,116.354 376.536 L 115.400 378.200 115.400 403.000 L 115.400 427.800 116.364 429.200 C 119.784 434.163,126.070 435.154,133.000 431.823 C 133.660 431.505,139.330 429.070,145.600 426.411 C 151.870 423.752,157.630 421.294,158.400 420.948 C 159.170 420.603,160.340 420.077,161.000 419.780 C 161.660 419.484,163.370 418.773,164.800 418.202 C 166.230 417.631,167.760 417.003,168.200 416.805 C 168.640 416.608,171.790 415.252,175.200 413.793 C 188.498 408.102,190.200 406.855,190.200 402.800 C 190.200 398.672,188.044 397.168,173.600 391.223 C 172.390 390.725,170.860 390.076,170.200 389.781 C 169.540 389.486,167.200 388.500,165.000 387.590 C 162.800 386.680,160.280 385.609,159.400 385.211 C 158.520 384.813,154.560 383.107,150.600 381.420 C 146.640 379.733,142.860 378.118,142.200 377.831 C 141.540 377.544,140.010 376.904,138.800 376.409 C 137.590 375.914,136.317 375.368,135.972 375.196 C 130.491 372.466,125.354 371.533,121.561 372.579 M265.622 372.619 C 264.423 372.910,263.073 373.317,262.622 373.522 C 262.170 373.727,260.810 374.297,259.600 374.789 C 257.455 375.660,256.934 375.881,253.200 377.506 C 252.210 377.937,249.870 378.936,248.000 379.726 C 243.963 381.431,232.706 386.241,231.000 386.991 C 230.340 387.280,228.810 387.925,227.600 388.423 C 225.110 389.448,221.049 391.185,217.900 392.573 C 217.185 392.888,215.070 393.792,213.200 394.581 C 200.762 399.832,200.847 405.898,213.433 411.195 C 215.615 412.114,218.120 413.197,219.000 413.602 C 219.880 414.008,221.770 414.812,223.200 415.390 C 224.630 415.968,226.340 416.682,227.000 416.977 C 228.200 417.514,231.139 418.807,233.400 419.794 C 234.060 420.082,235.590 420.726,236.800 421.226 C 238.010 421.725,240.125 422.644,241.501 423.267 C 242.877 423.890,244.125 424.400,244.274 424.400 C 244.424 424.400,246.358 425.201,248.573 426.179 C 263.365 432.716,266.176 433.724,269.600 433.719 C 274.045 433.713,277.544 431.451,278.858 427.734 C 279.908 424.762,279.627 379.485,278.543 377.168 C 276.536 372.874,271.645 371.153,265.622 372.619 " stroke="none" fill="#00b8de" fill-rule="evenodd"></path></g></svg>